<svg xmlns="http://www.w3.org/2000/svg" xmlns:xlink="http://www.w3.org/1999/xlink" width="1296" height="510" version="1.1" viewBox="0 0 1296 510"><title>ABB</title><desc>Created with Sketch.</desc><g id="Page-1" fill="none" fill-rule="evenodd" stroke="none" stroke-width="1"><g id="ABB" fill="red"><g id="svg_1"><path id="svg_2" d="M846.308905,57.5207759 C868.637583,92.4771863 868.406526,147.959001 845.180724,182.240251 C836.15957,196.449393 822.625552,210.432005 808.416483,219.679685 C815.860759,224.867668 824.433351,228.025856 832.32633,232.307522 C839.539549,238.397123 846.979539,244.486864 854.201883,250.576466 L699.482719,250.576466 L699.482719,1.35930563 C757.220964,-3.37555257 816.309325,4.29089529 846.308909,57.5207759 L846.308905,57.5207759 Z"/><path id="svg_3" d="M1243.9245,58.6443577 C1263.77032,90.8958765 1264.67173,141.416308 1245.27945,174.120783 C1236.25802,191.26151 1220.92063,207.726977 1204.90819,219.67969 C1221.37389,226.671118 1237.38648,235.914204 1250.68916,250.57647 L1095.97442,250.57647 L1095.97442,1.35931016 C1154.39228,-2.92696807 1214.38247,4.29089982 1243.9245,58.6443622 L1243.9245,58.6443577 Z"/><path id="svg_4" d="M249.543487,250.576483 L90.5425194,250.576483 L174.891178,1.35932315 L249.543487,1.35932315 L249.543487,250.576483 Z"/><path id="svg_5" d="M416.668418,250.576483 L259.017699,250.576483 L259.017699,1.35932315 L333.443446,1.35932315 L416.668418,250.576483 Z"/><rect id="svg_6" width="147.95" height="249.217" x="542.965" y="1.359"/><rect id="svg_7" width="147.275" height="249.217" x="939.683" y="1.359"/><path id="svg_8" d="M249.543487,406.283272 L165.647954,406.283272 L127.080303,509.716347 L0.326327434,509.716347 L89.8674295,260.725819 L249.543487,260.725819 L249.543487,406.283272 Z"/><path id="svg_9" d="M509.358545,509.716347 L379.451051,509.716347 L345.169663,406.283272 L345.169663,406.283272 L259.017699,406.283272 L259.017699,260.725819 L417.565542,260.725819 L509.358545,509.716347 Z"/><rect id="svg_10" width="147.95" height="248.995" x="542.965" y="260.726"/><path id="svg_11" d="M864.355781,260.725801 C902.470411,300.421668 909.461563,367.403067 887.355088,416.568651 C874.727184,447.243291 846.984097,479.26818 815.40777,492.349141 C781.130806,508.36615 740.981887,510.391523 699.487277,509.720893 L699.487277,260.725801 L864.355777,260.725801 L864.355777,260.725801 L864.355781,260.725801 Z"/><rect id="svg_12" width="147.275" height="248.995" x="939.683" y="260.726"/><path id="svg_13" d="M1260.8432,260.725801 C1291.06471,297.938672 1304.59403,349.587252 1289.48354,398.073217 C1279.1073,438.675266 1247.53097,483.101424 1205.36117,496.862004 C1172.20824,509.263278 1134.54231,510.844584 1095.97442,509.720893 L1095.97442,260.725801 L1260.84319,260.725801 L1260.84319,260.725801 L1260.8432,260.725801 Z"/></g></g></g></svg>