<svg xmlns="http://www.w3.org/2000/svg" xmlns:svg="http://www.w3.org/2000/svg" xmlns:xlink="http://www.w3.org/1999/xlink" id="svg4360" x="0" y="0" enable-background="new -4423.8 518.5 3618 512" version="1.1" viewBox="-4423.8 518.5 3618 512" xml:space="preserve"><switch><g><g id="layer1" transform="translate(499.74852,-328.62684)"><g id="g4299" transform="matrix(5.6414128,0,0,-5.6414128,-2394.9917,3227.2323)"><g id="g3990" transform="translate(434.8402,492.4554)"><path id="path3992" fill="#F36F21" d="M-525.5-147.6l-10.6,42.8h-0.2l-10.5-42.8h-14 l-16.6,62.8h13.8l9.9-42.8h0.2l10.9,42.8h12.9l10.7-43.3h0.2l10.3,43.3h13.5l-16.9-62.8H-525.5z"/></g><g id="g3994" transform="translate(450.2328,502.0917)"><path id="path3996" fill="#F36F21" d="M-485.1-122.3c-1.5,1.6-3.8,2.5-6.8,2.5 c-2,0-3.6-0.3-5-1c-1.3-0.7-2.4-1.5-3.2-2.5s-1.3-2.1-1.7-3.2c-0.3-1.1-0.5-2.1-0.6-3h20.3C-482.5-126.4-483.6-124-485.1-122.3 M-499.2-146.3c1.9-1.8,4.6-2.7,8.1-2.7c2.5,0,4.7,0.6,6.5,1.9c1.8,1.3,2.9,2.6,3.3,4h11c-1.8-5.4-4.5-9.3-8.1-11.7 c-3.6-2.3-8-3.5-13.2-3.5c-3.6,0-6.8,0.6-9.7,1.7c-2.9,1.1-5.3,2.8-7.3,4.9c-2,2.1-3.5,4.6-4.6,7.6c-1.1,2.9-1.6,6.2-1.6,9.7 c0,3.4,0.6,6.6,1.7,9.5c1.1,2.9,2.7,5.5,4.7,7.6c2,2.1,4.5,3.8,7.3,5.1c2.8,1.2,6,1.8,9.4,1.8c3.9,0,7.2-0.8,10.1-2.2 c2.9-1.5,5.2-3.5,7.1-6c1.8-2.5,3.2-5.4,4-8.6s1.1-6.6,0.9-10.1h-32.9C-502.1-141.6-501-144.5-499.2-146.3"/></g><g id="g3998" transform="translate(463.374,498.4684)"><path id="path4000" fill="#F36F21" d="M-450.5-131.9c-0.8-0.3-1.6-0.5-2.5-0.7 c-0.9-0.2-1.9-0.3-2.9-0.4c-1-0.1-2-0.3-3-0.4c-0.9-0.2-1.9-0.4-2.8-0.7c-0.9-0.3-1.7-0.7-2.4-1.2c-0.7-0.5-1.2-1.1-1.6-1.9 c-0.4-0.8-0.6-1.7-0.6-2.9c0-1.1,0.2-2,0.6-2.8s1-1.4,1.7-1.8c0.7-0.4,1.5-0.7,2.5-0.9c0.9-0.2,1.9-0.3,2.9-0.3 c2.5,0,4.4,0.4,5.7,1.2c1.4,0.8,2.3,1.8,3,2.9c0.6,1.1,1,2.3,1.2,3.5c0.2,1.2,0.2,2.1,0.2,2.8v4.7 C-449.1-131.2-449.8-131.6-450.5-131.9 M-475.3-114.2c1.3,1.9,2.9,3.5,4.9,4.7c2,1.2,4.2,2,6.7,2.5c2.5,0.5,5,0.8,7.5,0.8 c2.3,0,4.6-0.2,6.9-0.5s4.5-1,6.4-1.9c1.9-0.9,3.5-2.2,4.7-3.9c1.2-1.7,1.8-3.9,1.8-6.6v-23.6c0-2,0.1-4,0.4-5.9 c0.2-1.9,0.6-3.3,1.2-4.2h-12.5c-0.2,0.7-0.4,1.4-0.6,2.2c-0.1,0.7-0.3,1.5-0.3,2.2c-2-2.1-4.3-3.5-7-4.3 c-2.7-0.8-5.4-1.2-8.3-1.2c-2.2,0-4.2,0.3-6.1,0.8c-1.9,0.5-3.5,1.3-4.9,2.5c-1.4,1.1-2.5,2.5-3.3,4.2 c-0.8,1.7-1.2,3.7-1.2,6.1c0,2.6,0.5,4.7,1.4,6.4c0.9,1.7,2.1,3,3.5,4c1.4,1,3.1,1.7,4.9,2.2c1.8,0.5,3.7,0.9,5.6,1.2 c1.9,0.3,3.7,0.5,5.5,0.7c1.8,0.2,3.4,0.4,4.8,0.8c1.4,0.4,2.5,0.9,3.3,1.5c0.8,0.7,1.2,1.7,1.1,2.9c0,1.4-0.2,2.4-0.7,3.2 c-0.4,0.8-1,1.4-1.8,1.8c-0.7,0.4-1.6,0.7-2.5,0.9c-1,0.1-2,0.2-3.1,0.2c-2.5,0-4.4-0.5-5.8-1.6c-1.4-1.1-2.2-2.8-2.5-5.3 h-12.5C-477.3-118.6-476.6-116.1-475.3-114.2"/></g><g id="g4002" transform="translate(476.4785,505.0357)"><path id="path4004" fill="#F36F21" d="M-416.2-114.6v-8.3h-9.1v-22.5c0-2.1,0.4-3.5,1.1-4.2 c0.7-0.7,2.1-1.1,4.2-1.1c0.7,0,1.4,0,2,0.1c0.6,0.1,1.3,0.1,1.8,0.3v-9.7c-1.1-0.2-2.2-0.3-3.5-0.3c-1.3-0.1-2.5-0.1-3.8-0.1 c-1.9,0-3.8,0.1-5.5,0.4c-1.7,0.3-3.3,0.8-4.6,1.5c-1.3,0.8-2.4,1.8-3.1,3.3c-0.8,1.4-1.1,3.2-1.1,5.5v26.8h-7.6v8.3h7.6v13.7 h12.5v-13.6h9.1V-114.6L-416.2-114.6z"/></g><g id="g4006" transform="translate(481.7784,509.8289)"><path id="path4008" fill="#F36F21" d="M-402.3-102v-23.6h0.3c1.6,2.6,3.6,4.5,6.1,5.8 c2.5,1.2,4.9,1.8,7.2,1.8c3.3,0,6.1-0.5,8.2-1.4c2.1-0.9,3.8-2.2,5-3.8s2.1-3.6,2.6-5.9c0.5-2.3,0.7-4.9,0.7-7.7v-28h-12.5 v25.7c0,3.7-0.6,6.5-1.8,8.4c-1.2,1.8-3.3,2.8-6.2,2.8c-3.4,0-5.9-1-7.4-3s-2.3-5.3-2.3-10v-23.8h-11.9v62.8h12L-402.3-102 L-402.3-102z"/></g><g id="g4010" transform="translate(499.5084,502.0917)"><path id="path4012" fill="#F36F21" d="M-355.8-122.3c-1.5,1.6-3.8,2.5-6.8,2.5 c-2,0-3.6-0.3-5-1c-1.3-0.7-2.4-1.5-3.2-2.5s-1.4-2.1-1.7-3.2c-0.3-1.1-0.5-2.1-0.6-3h20.3C-353.3-126.4-354.3-124-355.8-122.3 M-369.9-146.3c1.9-1.8,4.6-2.7,8.1-2.7c2.5,0,4.7,0.6,6.5,1.9c1.8,1.3,2.9,2.6,3.3,4h11c-1.8-5.4-4.4-9.3-8.1-11.7 c-3.6-2.3-8-3.5-13.2-3.5c-3.6,0-6.8,0.6-9.7,1.7c-2.9,1.1-5.3,2.8-7.3,4.9c-2,2.1-3.5,4.6-4.6,7.6c-1.1,2.9-1.6,6.2-1.6,9.7 c0,3.4,0.6,6.6,1.7,9.5c1.1,2.9,2.7,5.5,4.7,7.6c2.1,2.1,4.5,3.8,7.3,5.1c2.8,1.2,6,1.8,9.4,1.8c3.9,0,7.2-0.8,10.1-2.2 c2.9-1.5,5.2-3.5,7.1-6c1.8-2.5,3.2-5.4,4-8.6c0.8-3.2,1.1-6.6,0.9-10.1h-32.9C-372.8-141.6-371.8-144.5-369.9-146.3"/></g><g id="g4014" transform="translate(508.3068,505.0357)"><path id="path4016" fill="#F36F21" d="M-332.6-114.6v-8.4h0.2c0.6,1.4,1.4,2.7,2.4,3.9 s2.1,2.2,3.4,3.1c1.3,0.9,2.7,1.5,4.1,2c1.5,0.5,3,0.7,4.6,0.7c0.8,0,1.7-0.2,2.7-0.4v-11.6c-0.6,0.1-1.3,0.2-2.1,0.3 c-0.8,0.1-1.6,0.1-2.4,0.1c-2.3,0-4.2-0.4-5.8-1.1c-1.6-0.8-2.9-1.8-3.8-3.1c-1-1.3-1.6-2.9-2.1-4.6c-0.4-1.8-0.6-3.7-0.6-5.7 V-160h-12.5v45.5h11.9L-332.6-114.6L-332.6-114.6z"/></g><g id="g4018" transform="translate(387.8889,502.9403)"><path id="path4020" fill="#F36F21" d="M-648.7-120.1c-2,0-3.7-0.5-5-1.4 c-1.4-0.9-2.5-2.1-3.3-3.5c-0.9-1.4-1.5-3-1.8-4.7c-0.4-1.7-0.5-3.4-0.5-5.1c0-1.6,0.2-3.3,0.5-5c0.4-1.7,0.9-3.2,1.7-4.6 c0.8-1.4,1.9-2.5,3.2-3.4c1.4-0.9,3-1.3,4.9-1.3c3,0,5.3,0.8,6.9,2.5c1.6,1.7,2.6,3.9,3,6.7h12c-0.8-6-3.2-10.6-7-13.8 c-3.9-3.2-8.8-4.8-14.9-4.8c-3.4,0-6.5,0.6-9.4,1.7c-2.9,1.1-5.3,2.7-7.3,4.8s-3.6,4.5-4.7,7.3c-1.1,2.8-1.7,6-1.7,9.4 c0,3.5,0.5,6.8,1.5,9.8c1,3,2.6,5.6,4.5,7.8c2,2.2,4.4,3.9,7.3,5.1c2.9,1.2,6.1,1.8,9.9,1.8c2.7,0,5.3-0.3,7.8-1.1 c2.5-0.7,4.7-1.8,6.7-3.2c2-1.4,3.6-3.2,4.8-5.4c1.2-2.1,1.9-4.7,2.1-7.6h-12.2C-640.3-122.7-643.4-120.1-648.7-120.1"/></g><g id="g4022" transform="translate(401.5725,502.9403)"><path id="path4024" fill="#F36F21" d="M-612.7-120.1c-2,0-3.7-0.5-5-1.4 c-1.4-0.9-2.5-2.1-3.3-3.5c-0.9-1.4-1.4-3-1.8-4.7c-0.4-1.7-0.5-3.4-0.5-5.1c0-1.6,0.2-3.3,0.5-5c0.4-1.7,0.9-3.2,1.7-4.6 s1.9-2.5,3.2-3.4c1.4-0.9,3-1.3,4.9-1.3c3,0,5.3,0.8,6.9,2.5c1.6,1.7,2.6,3.9,3,6.7h12c-0.8-6-3.2-10.6-7-13.8 c-3.9-3.2-8.8-4.8-14.9-4.8c-3.4,0-6.5,0.6-9.4,1.7c-2.8,1.1-5.3,2.7-7.3,4.8s-3.6,4.5-4.7,7.3s-1.7,6-1.7,9.4 c0,3.5,0.5,6.8,1.5,9.8c1,3,2.5,5.6,4.5,7.8c2,2.2,4.4,3.9,7.3,5.1c2.9,1.2,6.2,1.8,9.9,1.8c2.7,0,5.3-0.3,7.8-1.1 c2.5-0.7,4.7-1.8,6.7-3.2c2-1.4,3.6-3.2,4.8-5.4c1.2-2.1,1.9-4.7,2.1-7.6h-12.2C-604.3-122.7-607.4-120.1-612.7-120.1"/></g><g id="g4026" transform="translate(370.8601,499.1707)"><path id="path4028" fill="#F36F21" d="M-693.4-130l8.5,23l8.3-23H-693.4z M-677.6-91.4h-14.1 l-23.8-62.8h13.4l5.2,14h24.2l5.1-14h13.5L-677.6-91.4z"/></g><g id="g4030" transform="translate(416.8361,505.2062)"><path id="path4032" fill="#F36F21" d="M-572.7-114.1V-138c0-4.6-0.7-8-2.2-10 c-1.5-2-3.8-3-7.1-3c-2.9,0-4.9,0.9-6,2.8c-1.1,1.9-1.7,4.6-1.7,8.4v25.7h-11.9v-28c0-2.8,0.2-5.4,0.7-7.7 c0.5-2.3,1.3-4.3,2.5-5.9c1.2-1.6,2.8-2.9,4.8-3.7c2.1-0.9,4.7-1.3,7.9-1.3c2.5,0,5,0.6,7.4,1.8c2.3,1.1,4.1,2.9,5.6,5.3v-5.9 h11.9v45.6l0,0h-11.9C-572.7-113.8-572.7-114.1-572.7-114.1z"/></g><g id="g4034" transform="translate(359.4775,507.4658)"><path id="path4036" fill="#F36F21" d="M-723.1-108.2l-13.6,2.9l-3,13.6l-13.3-4.2l-9.4,10.3 l-9.4-10.3l-13.3,4.2l-2.9-13.6l-13.6-3l4.3-13.3l-10.3-9.4l10.3-9.4l-4.4-13.4l13.6-2.9l3-13.6l13.3,4.3l9.4-10.3l9.4,10.3 l13.3-4.2l2.9,13.6l13.6,3l-4.3,13.3l10.3,9.4l-10.3,9.4L-723.1-108.2z M-762.6-99.6c-17.3,0-31.6-14.1-31.6-31.5 s14.1-31.6,31.6-31.6c17.3,0,31.5,14.1,31.5,31.6C-731-113.7-745.1-99.6-762.6-99.6 M-782.6-111.4c10.9,10.9,28.9,10.9,39.8,0 c11-11,11-28.9,0-39.8c-10.9-10.9-28.7-10.9-39.8,0C-793.6-140.3-793.5-122.5-782.6-111.4"/></g></g></g></g></switch></svg>