<svg xmlns="http://www.w3.org/2000/svg" xmlns:xlink="http://www.w3.org/1999/xlink" id="Layer_1" x="0" y="0" enable-background="new -159 341 512 512" version="1.1" viewBox="-159 341 512 512" xml:space="preserve"><switch><g><g><polygon fill="#FFF" points="-159 853 353 853 353 341 -159 341"/><path d="M49.4,621.9L43,651.5H28.3l24.2-107.4h17.4l22.8,107.4H77.9l-6.2-29.6H49.4L49.4,621.9z M69.9,609.9L65,584.2 c-1.4-7.3-2.9-16.9-4-24.5h-0.6c-1.1,7.8-2.7,17.7-4.1,24.5l-5.1,25.7H69.9L69.9,609.9z"/><path d="M148.7,541.2v90.4c0,5.9,0.3,14.5,0.6,19.9h-12.9l-1-9.4H135c-2.5,5.4-8.4,10.7-16.3,10.7c-14.3,0-23.1-15.6-23.1-39.7 c0-27.4,11.6-40.3,23.9-40.3c6.2,0,11.2,2.9,13.9,8.8h0.3v-40.3h15V541.2z M133.7,603.5c0-1.4,0-3.2-0.2-4.8 c-0.8-7-4.8-13.1-10.2-13.1c-9.4,0-12.6,13.1-12.6,27.4c0,15.9,4.1,27.1,12.1,27.1c3.3,0,7.8-1.8,10.4-11 c0.3-1.3,0.5-3.2,0.5-4.9V603.5L133.7,603.5z"/><path d="M184.4,652.8c-15.5,0-26.6-13.2-26.6-39.8c0-28.2,13.2-40.2,27.4-40.2c15.3,0,26.3,13.7,26.3,39.8 c0,30.8-15.1,40.2-26.9,40.2H184.4L184.4,652.8z M184.8,641c9.2,0,11.3-16.4,11.3-28.2c0-11.6-2.1-28.2-11.6-28.2 c-9.9,0-11.8,16.6-11.8,28.2c0,12.9,2.2,28.2,12,28.2H184.8L184.8,641z"/><path d="M220.5,541.2h15v41.6h0.3c4-7,9.4-10,16.3-10c13.2,0,21.5,15,21.5,38.7c0,27.7-11.3,41.3-24.1,41.3 c-7.6,0-12-4.1-15.3-11h-0.6l-0.8,9.7h-12.9c0.3-5.3,0.6-14,0.6-19.9V541.2L220.5,541.2z M235.5,624.1c0,1.8,0.2,3.5,0.6,4.8 c2.4,9.4,7,11.3,10,11.3c8.9,0,12.3-11.8,12.3-27.7c0-14.8-3.5-26.8-12.4-26.8c-4.9,0-8.9,5.9-10,11.5c-0.3,1.6-0.5,3.7-0.5,5.3 V624.1L235.5,624.1z"/><path d="M295.7,615.8c0.2,19.9,8.8,24.9,17.8,24.9c5.4,0,10-1.3,13.4-2.9l2.2,10.8c-4.6,2.4-11.6,3.7-18.5,3.7 c-19.4,0-29.6-14.7-29.6-38.6c0-25.3,11.6-41,27.7-41s23.6,15.5,23.6,34.9c0,3.8-0.2,6.2-0.3,8.3L295.7,615.8L295.7,615.8z M318.1,605.1c0.2-13.7-4.6-21-10.5-21c-7.8,0-11.3,11.3-11.8,21H318.1L318.1,605.1z"/><polygon fill="#CC2131" points="-56.1 544.4 -11.3 544.4 -11.3 651.5"/><polygon fill="#CC2131" points="-87.6 544.4 -132.4 544.4 -132.4 651.5"/><polygon fill="#CC2131" points="-71.9 583.9 -43.3 651.5 -62 651.5 -70.6 630 -91.4 630"/><path d="M331,572.6c1.9,0,3.4,1.5,3.4,3.4s-1.5,3.5-3.4,3.5s-3.4-1.5-3.4-3.5C327.6,574.1,329.1,572.6,331,572.6L331,572.6 L331,572.6z M331,573.1c-1.5,0-2.8,1.3-2.8,2.9c0,1.6,1.2,2.9,2.8,2.9c1.5,0,2.8-1.3,2.8-2.9C333.8,574.4,332.6,573.1,331,573.1 L331,573.1L331,573.1z M330.4,578h-0.6v-3.8c0.3,0,0.6-0.1,1.1-0.1c0.6,0,1,0.1,1.2,0.3s0.4,0.4,0.4,0.8c0,0.5-0.3,0.8-0.8,0.9 l0,0c0.3,0.1,0.6,0.4,0.6,0.9c0.1,0.6,0.2,0.8,0.2,1h-0.6c-0.1-0.1-0.2-0.5-0.3-1c-0.1-0.5-0.3-0.7-0.8-0.7h-0.4L330.4,578 L330.4,578z M330.4,575.9h0.4c0.5,0,0.9-0.2,0.9-0.7c0-0.3-0.2-0.7-0.9-0.7c-0.2,0-0.3,0-0.4,0V575.9L330.4,575.9z"/><path d="M-5.4,544.4c1.9,0,3.4,1.5,3.4,3.4s-1.5,3.5-3.4,3.5s-3.4-1.5-3.4-3.5C-8.9,545.9-7.3,544.4-5.4,544.4L-5.4,544.4 L-5.4,544.4z M-5.5,544.9c-1.5,0-2.8,1.3-2.8,2.9c0,1.6,1.2,2.9,2.8,2.9c1.5,0,2.8-1.3,2.8-2.9S-3.9,544.9-5.5,544.9L-5.5,544.9 L-5.5,544.9z M-6.1,549.8h-0.6V546c0.3,0,0.6-0.1,1.1-0.1c0.6,0,1,0.1,1.2,0.3c0.2,0.2,0.4,0.4,0.4,0.8c0,0.5-0.3,0.8-0.8,0.9 l0,0c0.3,0.1,0.6,0.4,0.6,0.9c0.1,0.6,0.2,0.8,0.2,1h-0.6c-0.1-0.1-0.2-0.5-0.3-1s-0.3-0.7-0.8-0.7h-0.4V549.8L-6.1,549.8z M-6.1,547.7h0.4c0.5,0,0.9-0.2,0.9-0.7c0-0.3-0.2-0.7-0.9-0.7c-0.2,0-0.3,0-0.4,0V547.7L-6.1,547.7z"/></g></g></switch></svg>