<svg xmlns="http://www.w3.org/2000/svg" xmlns:xlink="http://www.w3.org/1999/xlink" id="Layer_1" x="0" y="0" enable-background="new -543.6 253 1123.3 512" version="1.1" viewBox="-543.6 253 1123.3 512" xml:space="preserve"><switch><g><g><path fill="#CF4037" d="M385.2,253.5H202.4l0.3,83.9c-77.3-89.7-180.4-84.3-180.4-84.3h-267.2l-298.7,511.1h201l61.7-108 l117.3-0.2v108.7L18.2,765c0,0,105,2,183.8-85.1l-0.1,84.3h171.4l0.1-107.6h17.7c69.5,5.3,189.1-66.5,188.5-205.7 C579.3,335.5,491,253.5,385.2,253.5L385.2,253.5z M373.6,594.9l-66.9,0.2l-0.1,107.8l-42.3,0.1V594.8h-74.8 c0,0-40.5,104-176.1,107.6L-96.9,703V594.3h-220.6L-382,702.8h-50.5l223-383.1H12.4c139.8,0.8,186.7,118.7,193,162.7h59 l0.1-163.8h113.8c86.3,4.2,136.6,76.5,138.1,125.3C518.7,520.9,464.7,591.3,373.6,594.9L373.6,594.9z"/><path fill="#CF4037" d="M-53.3,363.3l0.1,63.4c0,0,61.3,0,57,0c112.2-0.3,112.3,167.4-3,167c-0.1,0-54,0-54,0v63.5 c0,0,51.9,0,54.4,0c87.2,0.5,155.5-59.1,155.3-152.2c-0.1-57.9-49.4-141.7-145.2-141.7L-53.3,363.3L-53.3,363.3z"/><path fill="#CF4037" d="M309.1,363.8v63.5h61.6c39.7,1.9,40.5,59.4,0.4,59.2h-61.7v64.1c0,0,53.4,0.3,58.3,0 c51.9-0.2,98.5-36.1,98.5-97.1c0-60.4-47.8-89.7-98.5-89.7C376.6,363.8,309.1,363.8,309.1,363.8L309.1,363.8z"/><polygon fill="#CF4037" points="-160.8 362.5 -96.9 362.4 -96.9 550.9 -290 550.9 -252.9 486.3 -161 486.6"/><path fill="#CF4037" d="M466.7,707.4c5.9,5.9,8.9,13,8.9,21.4c0,8.5-3,15.7-8.9,21.6c-5.9,6-13,8.9-21.4,8.9 c-8.5,0-15.6-3-21.4-8.9c-5.9-5.9-8.8-13.1-8.8-21.6c0-8.4,3-15.5,8.9-21.4c5.9-6,13-8.9,21.3-8.9 C453.6,698.5,460.8,701.5,466.7,707.4L466.7,707.4z M470.1,704c-6.8-6.9-15.2-10.3-24.9-10.3s-18,3.4-24.8,10.3 c-6.8,6.9-10.3,15.2-10.3,24.8c0,9.8,3.4,18.1,10.2,25c6.8,6.9,15.2,10.3,24.9,10.3s18.1-3.4,24.9-10.3 c6.9-6.9,10.3-15.2,10.3-25C480.5,719.1,477,710.8,470.1,704L470.1,704z M450.5,727.2c-1.5,0.6-3.5,0.9-6.4,0.9H438v-14h5.7 c7.6,0,10.8,1.4,10.8,7.1C454.4,724.2,453.1,726.2,450.5,727.2L450.5,727.2z M431.1,748.1h6.8v-15.3h5.3c3.6,0,6.1,0.5,7.6,1.3 c2.4,1.5,3.6,4.5,3.6,8.9v3.1l0.2,1.3c0,0.1,0.1,0.3,0.1,0.4c0.1,0.1,0.1,0.2,0.1,0.4h6.4l-0.3-0.5c-0.1-0.3-0.3-1-0.3-2 c-0.1-1-0.1-2-0.1-2.9v-2.9c0-3.9-2.7-8.8-8.8-9.8c6.8-1,9.4-4.1,9.4-9.5c0-4.8-2-8.1-6-9.7c-2.2-0.9-5.8-1.4-10.5-1.4h-13.5 V748.1L431.1,748.1z"/></g></g></switch></svg>