<svg xmlns="http://www.w3.org/2000/svg" xmlns:xlink="http://www.w3.org/1999/xlink" id="Ancestry.com_logo_1_" x="0" y="0" enable-background="new -1456.7 -6 3413.3 512" version="1.1" viewBox="-1456.7 -6 3413.3 512" xml:space="preserve"><switch><g><rect id="Clear_Box" width="3413.3" height="512" x="-1456.7" y="-6" fill="none"/><g id="Ancestry.com_logo"><g id="_x2E_com"><path fill="#BBB0A3" d="M1913.4,204.2c-15.3,0-26.2-11-26.2-27c0-15.8,11.2-27,26.2-27c15.3,0,26.2,11,26.2,27 C1939.6,193.1,1928.3,204.2,1913.4,204.2z M1913.4,153.5c-12.3,0-22.3,8.3-22.3,23.7c0,15.2,10,23.9,22.3,23.9 c12.5,0,22.4-8.6,22.4-23.9C1935.8,161.8,1925.7,153.5,1913.4,153.5z M1921.4,191.5l-9.5-12.6h-2.8v12.4h-4.7v-29.8h8.8 c6.1,0,10.5,3.1,10.5,8.5c0,4.4-2.3,7.1-5.9,8.3l8.2,12.2L1921.4,191.5z M1913.2,166.1h-4.1v8.9h3.8c3.4,0,5.2-1.7,5.2-4.6 C1918.1,167.6,1916.6,166.1,1913.2,166.1z"/><path fill="#BBB0A3" d="M1841.1,347.9c-15.4,0-35.2,0.6-48.4,1.1c-1.5,0-1.5-7.5,0-7.5c25.9-4.1,29.7-4.4,29.7-51.2v-62.6 c0-32.8-16.5-54.4-47-54.4c-16.2,0-29,6.6-36.7,14.7c-8,7.5-12,18.1-12,27v75.4c0,46.2,5.7,47.1,31.4,51.2c1.6,0,1.6,7.5,0,7.5 c-13.1-0.6-30.5-1.1-45-1.1c-15.4,0-35.9,0.6-49,1.1c-0.9,0-0.9-7.5,0-7.5c26.4-4.1,29.9-4.4,29.9-51.2v-62.6 c0-32.8-16.7-54.4-46.4-54.4c-16.4,0-29.1,6.6-37.4,14.8c-7.9,8-11.6,18-11.6,26.8v75.4c1.2,46.2,6,47.1,31.6,51.2 c1,0,1,7.5,0,7.5c-13.1-0.6-30.5-1.1-45.3-1.1c-15.2,0-35.7,0.6-48.8,1.1c-0.8,0-0.8-7.5,0-7.5c25.7-4.1,30-4.4,30-51.2v-76.7 c0-46.2-6.3-46.8-32-50.6c-1.7,0-1.7-7.4,0-7.4h63.6c0,0,0,31.8,0,36.2h0.5c13.5-25.1,36.3-41.6,64.5-41.6 c27.9,0,50.9,14.1,59.9,47.9h0.5c13.6-28.2,36.7-47.9,67.6-47.9c37.9,0,64.7,26.7,64.7,76v64.1c0,46.2,5.1,47.1,30.8,51.2 c1.7,0,1.7,7.5,0,7.5C1873.1,348.5,1855.7,347.9,1841.1,347.9z"/><path fill="#BBB0A3" d="M1392.9,354.2c-65.6,0-100.4-44.5-100.4-102.5c0-58.1,38.8-103,100.4-103c65.6,0,99.5,44.9,99.5,103 C1492.5,309.7,1453.6,354.2,1392.9,354.2z M1392.9,160.1c-41.1,0-62.2,37.3-62.2,87.9s21.1,95.9,62.2,95.9 c40.2,0,61.3-37.9,61.3-88.6S1433.1,160.1,1392.9,160.1z"/><path fill="#BBB0A3" d="M1169.6,355.9c-53.4,0-96.1-44.2-96.1-102.9c0-62.5,44.2-105.5,99.2-105.5c29.3,0,50.5,13.7,56.2,13.7 c4.2,0,8-4.3,9.4-10.1c0-1.2,6.9-1.2,6.9,0v64.3c0,1.3-5.7,1.3-6.3,0c-11.4-30.5-37.1-58-66.6-58c-37.2,0-62.6,41.8-62.6,91.8 c0,51.1,30.5,85.6,71,85.6c28.2,0,52.4-17.7,66.7-41.4c2.6-4.3,4-1.2,4,1.1C1241.2,329.7,1208.2,355.9,1169.6,355.9z"/><path fill="#BBB0A3" d="M1000.7,356.5c-16.5,0-25.2-12.4-25.2-24.2c0-13.1,8.8-25.1,25.2-25.1c15.8,0,24.7,12,24.7,25.1 C1025.4,344.1,1016.5,356.5,1000.7,356.5z"/></g><g id="ancestry"><path fill="#695E4A" d="M-581.3,355.4c-20,0-38.6-13.1-43.6-33.7c-10.3,19.1-29.9,33.7-55,33.7c-29.2,0-53.6-22.5-53.6-50.9 c0-39.6,37.5-68.3,109.7-69l0.2-10.6c1.6-28.1-14.9-46.2-43.2-46.2c-21.1,0-42.4,13.1-55.9,30.9c-0.9,1.5-7.1-5-6.6-6.5 c18.1-36.2,52.5-56.9,86.9-56.9c40.2,0,68.7,28.8,67.4,76.1l-2.6,79.4c-0.6,19.1,8.1,26.3,17.5,26.3c10,0,17.5-7.7,21.3-18.9 c0.5-1.1,6.2,1.9,6.2,2.6C-536.2,339.7-556.3,355.4-581.3,355.4z M-623.8,246.2c-24.9,3-40.5,10.5-49.9,19.9 c-8.2,8.6-11.9,18.5-11.9,28.5c0,18.9,13.7,31.4,29.9,31.4c10,0,20-4.9,25.7-10.6c1.9-1.4,4.6-6.2,4.6-10L-623.8,246.2z"/><path fill="#695E4A" d="M-320.4,347.9c-15,0-41,0-54.2,0.6c-1.3,0-0.7-10-0.2-10c21.9-3.1,25.1-4.5,25.1-49.3v-61.5 c0-27.2-15.7-46.6-40.1-46.6c-16.8,0-31.2,8.1-38.6,18.5c-5.6,6.4-8.7,17.1-8.7,31.3c0,8.3,0,58.1,0,58.1 c0,44.2,5.6,46.2,27.4,49.3c0.5,0,0.7,10-0.6,10c-13.1-0.6-36.8-0.6-50.6-0.6c-15,0-40.5,0-53.6,0.6c-1.3,0-1.3-10-0.7-10 c24.4-4.2,28.1-4.5,28.1-49.3v-74.2c0-44.4-5.6-46.6-31.8-51.2c-1.8,0-1.2-10,0-10h77.5v45.7h0.9c17.2-32.4,44.6-51.7,76-51.7 c36.2,0,65.4,28.1,65.4,75.5v66.2c0,44.2,3.9,45.7,28.6,49.3c1.6,0,1.3,10,0,10C-283.8,347.9-306.6,347.9-320.4,347.9z"/><path fill="#695E4A" d="M-142.5,355.9c-61.2,0-101.6-47.9-101.6-103.4c0-58.8,40.5-106.3,105.4-106.3c30.1,0,45.6,10.5,55,10.5 c4.6,0,7.9-3,10.6-8.6c0.6-1.3,11.8-1.3,11.8,0v73.6c0,1.3-11.8,1.3-12.4,0.6c-16.2-33.6-38.7-62.3-65-62.3 c-33.1,0-51.8,34.9-51.8,82.5c0,51.4,26.2,85,63,85c25,0,51.7-16.7,63.2-36.6c1.7-2.3,9.8,2.1,9.2,3.7 C-67.6,329.2-103.1,355.9-142.5,355.9z"/><path fill="#695E4A" d="M34.1,249.2c0,43.1,24.4,78,66.2,78c25,0,49.4-16.1,61.9-36.2c0.6-1.2,8.1,2.1,7.8,3.7 c-10.9,33.9-47.8,61.3-89.1,61.3c-64.3,0-102.3-47.3-102.3-103.4c0-55.7,40.1-106.3,106.8-106.3c50.6,0,85,33.7,87.4,79.3v13.7 H34.2C34.1,241.7,34.1,247.3,34.1,249.2z M116,225.5v-14.4c0-32.3-15.3-49.8-34.4-49.8c-24.9,0-43,26.2-46.7,64.3H116V225.5z"/><path fill="#695E4A" d="M284.4,354.8c-31.7,0-59.8-7.4-69.2-14c-1.2-1.1-3.7-27.3-4-54.7c0-1.4,11.5-1.5,12.1-0.6 c16.3,35.5,40.5,55.6,65.6,55.6c21.7,0,36.8-10.2,36.8-28.8c0-20.5-24.3-29.9-49.3-40.5c-29.9-11.3-63-26.3-63-64.3 c0-29.4,25.6-60.5,73.6-60.5c20.8,0,33.6,8,42.4,8c4.7,0,8.1-2.9,11.1-8.7c0.2-1.3,11.4-1.3,11.4,0l0.6,67.4 c0,1.3-12,0.9-12.6-0.6c-15.7-30-35.6-51.8-58.7-51.8c-22.1,0-31.6,13.7-31.6,25.7c0,19.9,23.7,28.6,48.3,39.2 c29.8,12,64,27.5,64,66.2C361.9,327.6,331.4,354.8,284.4,354.8z"/><path fill="#695E4A" d="M391.8,175c-2.6,0-3.7-8.1-1.1-10.1c21.7-19.2,57.9-51.7,76.7-72.3c1.7-1.3,8,0.6,8,1.9v60.4h69.3 c1.4,0,1.4,18.8,0,18.8h-69.3v114c0,25.7,14.5,36.5,31.9,36.5c11.6,0,25.6-9.9,31.4-22.5c0-0.8,8.5,3.1,8,4.9 c-8.3,27.6-34.4,48.8-64.5,48.8c-31.7,0-57.9-19.9-57.9-60.4V175H391.8z"/><path fill="#695E4A" d="M717.2,207.4c-6.3,0-20.8-18.7-32.5-18.7c-4.6,0-10.6,3.1-15.7,7.7c-8.2,8.6-14.7,27.8-14.7,44v48.8 c0,44.8,6.7,46.2,29.8,49.3c0.6,0,1.7,10,0,10c-13.1-0.6-39.8-0.6-53.4-0.6c-15.4,0-41,0-54.2,0.6c-1.5,0-1.1-10-0.5-10 c24.8-4.2,27.9-4.5,27.9-49.3V215c0-43.8-5.8-46.6-32.2-51.2c-1.4,0-0.8-10,0-10h79.2V205h2.4c2-6.2,5.7-13.5,9.4-20 c14.3-23.1,31.2-38.1,49.9-38.1c17.4,0,30.8,13.2,30.8,28C743.4,190.5,723.2,207.4,717.2,207.4z"/><path fill="#695E4A" d="M952.9,173.7c-8.3,8.7-14.2,25-27.9,60.6l-66.1,170.3c-23.1,61-44.5,73-73.3,73 c-16.2,0-34.8-8.3-35.4-13.1c-0.3-8,10-38,16.2-38c2.9,0,26.8,11.2,39.6,11.2c16.6,0,28.3-11.1,37.1-35.6l12.5-32.5 c-4-16.2-53-123.4-58.7-138.4c-11.9-28.8-20.5-50.6-28.2-58.7c-5.4-5-10-7.4-24.8-9.1c-0.9,0-0.9-10.4,0-10.4 c13.1,0.5,41.1,0.7,55.6,0.7c15.4,0,42.8-0.7,55.9-1.2c0.9,0,0.9,10.5,0,10.5c-30.5,3.9-27.9,14.4-11.1,55l36.2,86.4l27.8-74 c9.9-25.9,15.3-41.2,15.3-50c0-10.6-6.9-14.9-28.5-16.8c-0.9,0-0.9-11.2,0-11.2c14.8,0.5,33,1.2,45.3,1.2 c9.4,0,18.2-0.7,36.2-1.2c1,0,1.4,11.2,0.5,11.2C964.5,164.9,958.7,168.1,952.9,173.7z"/></g><path id="Leaf" fill="#B0BC22" d="M-1121.7,231.1c0.8,0,1.4,0.2,2.2,0.3h20.7l34.5,3c0.6,0,2,0,4.5,0v-1.5 c-2.5-0.6-4-1.5-5.4-1.5c-3-0.5-3-0.5-6-3l-17.7-6.9l-13.1-7.6l-20.4-9.3c-0.9,0-3-1.6-6-4.6c-4.9-1.5-16.9-12.9-16.9-12.9 c-3-1.6-3.9-3-4.6-7c-4.8-1.5-5.3-2-7.8-6.8l-2.1-3.6c-10.9-10.9-16.8-23.9-25.4-35.3l-2.5-10c-0.5-0.6-0.5-2.2-2-4.5 c0-1.5-1-3-1.5-6l-2.5-1c-1.5-2.9-2.4-5.4-3-6.9l-0.9-11.5l-6.8-25.9l1.6-6l-3.8-15.5v-6.9l-4-19c0-1.4-0.6-3-0.6-6.3l0.6-0.6 c3,0,5.5,0,7,0.6c7.5,0,13.9,0,21.4,0.9c22.8,0.7,29.8,1.5,31.3,1.5l10.7,1.5l20.6,2.4l11.5,3l12.9,2.2c3.9,0.8,6.9,1.6,9.4,3.3 l10.4,4.5l7.7,3c0.7,0,2.3,1.5,3.8,3c5.4,1,7.8,1.5,11.5,3.9l14.5,8.5l5.4,4.5c0.9,0.7,2.4,1.5,4.5,3c1.7,1.6,3.3,3.1,4,4 l19.9,16.8l4.5,6.1l9.9,9l6.2,9.4l9.9,10.4l6.3,9.4l10,16c3,5.5,11.4,20.5,15.9,29.9c2.4,6,3,8.5,4.5,14.4c4,6,5.5,8.5,7,14 l4.5,18.3l4.7,9.9c0,1.6,0.8,4.6,1.6,8.3c3.6,0,6.6,0,10.6,0h2.4c5.1,0.9,6,0,15.9,0h0.7l9.3,0.9h9v-1.6l1.5-1 c-0.6-2.1-0.6-3.5-0.6-4.5v-20.4l0.6-29.4c0-0.5-0.6-5.2-0.6-11.5l-3-67.2l-0.9-22.9l-5.4-62.7v-1.4h1.7l0.7-3c2.5,0,3.9,0,4.5,0 c2.5,0,4.7,0,6.4,0c0.6,0,1.6,0,3,0l-1.7,3l26.7-1.5c1.6,0,3.3,0,5.3,0l1.5,0.5c-0.5,6.5-0.5,10.9-0.5,13.9l-1.5,15.5l-1,37.4 l-1.5,37.4l1,22.9l-1.7,30.8l1.7,14.4v23v8.4l-1,6.1c0,1.5,0,5.5,1,11.4V253l0.5,40.8c0,2,0,4.2,0,7.6s0,6.6-0.5,9.9l-1.7,13.5 l0.7,28.8c0,2,0,6.9,0,13v7v2.9c-1.5,28.9,0,53.6,3,70.1c1.5,9.9,3,18.5,2.4,24.5c0,2-1,4-1.5,6c-1.5,2.5-2.4,4-3,4l-31.4-1.4 h-7.8c-2.1,0-4.5-1.5-7.5-4.5v-7.9c0.5-7.4,1.5-12.9,1.5-16.9l3-19.9c0-0.2,0.9-3,0.9-6l0.5-0.8c0-0.2,0-1.2,0-1.2l2.5-39.8 c0,0,0,0,0-0.9l-0.9-4l0.9-6l0.5-45.8l1-7l-1-7.9l1.5-16c0-1,0-2.9-0.5-5h0.5c-0.5-2.9-0.5-5-0.5-8.3c0-1.7,0-5.7,0.5-9.6h-0.2 c-9.4-2.1-12.4-2.1-16.9-2.1c4,0-20.6-1.5-21.4-1.5c-3,0-6,0-9.1,0c0,2.5,0,4.5,0,6.4c0,0.2,0,2,0,3.1l-6.3,19.9l-1.5,12.9 l-12.1,36.8l-3.9,14.9l-8.4,20c-2.4,6-4.5,10-5.5,10.9l-4.5,3l-5.4,7.3l-7.5,7.6l-5.5,8.9c-0.5,0.2-4.5,4.1-10.5,9.9l-13,12.1 c-0.9,0-2.4,1.1-6.3,4c-13.5,7.1-27.4,14-41.9,20.2c-26.1,10.7-43.7,14.6-77.2,18.6c-36.3,4-39.8,4-85.8,4h-5.3 c0-10,0.5-13.9,2-18.8l3.3-10.4l3.2-18.6l12-24.3l5.4-16.5c0.8-1.1,1.5-2,5.5-8c3-4.9,6-9,9-13.9c0.9-1,1.5-2,2.9-4.5 c1.6-3.3,3.2-5.4,4-6.5l10-10c0.8-0.9,2.4-3.3,3.9-6.6c3.1-2.3,3.6-3.2,4.5-6.6l6-6.6l2.4-0.2l0.5-2.8h1.5c4-4.1,4.9-6.1,9.9-9 c2.5-3,3.9-3.9,7.9-7v-1h1.5v-0.9l1.5-1V315c2.2-1.1,3.9-2,4.5-3l15.9-11.9l16.4-8.3c0.5-0.7,2-1.7,3.5-2.6l1-0.7l3-1.3v-1 c3.9-2,4.5-2,7.5-2v-0.9h1c3.9-5,3.9-5,11.4-7.9l15.5-4.1c0.5-1,2-1,4.5-2v-0.5c-4.5,0-7.6,0-9.3,0l-23.5-0.5l-26.9,0.5h-25.9 M-1109,268.2c-0.9,0-1.5,0-4,0c-1.5,1.5-2.4,2.5-3,2.5l-10,9l-15.4,10.9c-0.5,0.7-3,2.1-6,4.1c-4.5,5.9-4.5,5.9-16,10.9l-19.4,9 c-8.5,3.9-13.6,4.9-44.9,8.9c-17.8,1.1-23.1,2-29.8,1.1c-9.4,0-24.7-1.1-36.8-2.1c-14.5-2-23.9-4.8-36.9-9l-25.9-10.9 c-1,0-2.4,0-4.5-1c-3.1-2-5.5-3.7-7-4l-13-6.4l-3.9-3.3c-2.3-2.3-6-3.4-10.6-5.3c-6.9-1.3-8.4-2.1-9.9-7c-4-3-10.9-5-13.9-8l-7-4 v-1c-1.5-2.1-1.5-2.9-3.9-3.9v-0.4l-3.6-1.5v-0.9h-1c-0.2-3-1.2-3.6-4.2-6.1c0.8-7,2.5-8.5,10-13c0.8-0.9,2.4-1.5,4.5-2.5v-1.5 h1.5v-1.5l4-1.5v-0.5h1.5v-1.6l7-3.3l0.5-0.5l2.4-1v-0.6h1.5c4.5-4.6,7-5.5,13.9-7.9c0.6-1.6,0.6-2.1,1.5-2.1l4.6-0.9l2.4-2 c0.5-1,1.5-1.6,3.5-2.5c4.7-3.1,5.4-3.1,15.4-7.5l22.3-8.5c20.5-8.4,51.1-14.4,69.3-13.8c6.4,0,16.4,1,30.8,2.5 c16.9,2,22,3,25.9,3.6l22.4,6.9l13,3l12,6.4l10,2.9c6.4,3,11.4,6,16.3,10c5.1,3.7,8.3,6.9,9,6.9l8.4,3l13.9,7.5 c0.4,0.8,2.7,1,5.4,1.2 M-1348.7,239.5c1.2,1,2.6,2.3,3.4,3.1l2.5,3.3l4.6,3.7l6.2,7.3h2.1c0,0.7,0.4,1.4,1.3,1.8l5.3,4.5 l4.7,4.6c1.9,0.9,2.5,1.8,3.4,2.7l5.9,1.8l19.2,11l14.3,3.6l20.4,6.4l7.5,0.9l22.6,2.7c1.3,0,3.4,0,4.6-0.9c8,0,21-1.4,25.5-3.7 c1.3,0,5.9-1.8,12.6-5.4c10-4.5,16.1-7.3,17.5-8.8l11.3-8.6c0.5,0,2.1-1.3,3.8-1.8c-0.4-5.5-1.3-6.4-5.9-10.2h-0.7 c-0.5-2-1.8-3-1.8-3.5l-4.2-3.2c-0.6-0.5-2.1-1.4-3.3-2.8c-2.1-2.2-2.5-2.7-3.4-3.6l-13.8-10.5l-2.9-3.7l-7.9-4.3l-3.4-3.5 l-3.9-3.1l-14.9-7.8c-8-5-29.8-11.3-44-12.8c-5.4,0-16.7-0.8-21.4-0.8c-4,0-6.7,0.8-8,1.7l-5.9,4.2l-9.5,2.8l-24.7,13.7 c-0.4,0.8-2.1,1.3-3.3,2.2l-0.4,2.7l-10.9,7.3c-3.4,1.8-5.4,4.1-5.4,6.3L-1348.7,239.5z M-976.8,327.1c0-2.6,2.2-6.9,4.3-13.9 c1.3-3.5,2.5-6.9,2.5-10.4v-6.9c0-0.9,0-1.7,0-3.4c0.9-4.5,1.4-12.2,1.4-21.7c-15.6,0.8-26,1.8-36.9,4.3 c-13,3.5-34.3,11.4-38.6,14l-21.9,15.5l-7.6,5.2c-0.6,0-1.3,1.4-2.6,3.5l-15.2,14.8l-6.9,11.2l-10.3,13.8l-8.3,13.1l-5.2,8.7 l-3,7.8l-3.5,6.1l-1.7,4.3c0,0.6-1.6,0.9-3,1.8c-1.3,5.2-1.9,7.7-3.5,9.5l-3.9,8.7c-0.8,1.7-1.3,3.5-2.1,6l-2.2,14.2l-1.8,8.4 c0,0.9-0.9,1.7-0.9,4.3c5.6,0.9,9.1,1.8,11.7,1.8c4.1,0,7,0,11.7-0.9l26-0.4l7.6-2.2l14.5-2.6l13-4.4l6.1-1.8l13.8-8.6l4.8-0.9 c3.5-1.8,5.5-3.5,7.5-5.9l2.1-3.3l17.8-15.9l4.3-7.8c0-1.7,3.9-6.1,9.6-13c0.6-0.9,2.1-2.5,3.4-3.4c0.5-2.6,1.3-3.5,1.3-4.4 l4.1-6.9c0-0.9,1.6-3.5,2.9-7.9c0.4-2.5,2-12,7.3-23.1c0-0.2,0.9-1.9,2.2-4.5C-976.8,328-976.8,327.6-976.8,327.1z M-965.5,223 c0-1.9-0.8-4.8-2.1-8.7c-2.2-5.7-3.5-9.7-3.5-11.7c-1.3-3.5-2.2-5.6-2.2-6.2l-3.9-8.3l-3.4-10.2l-2.7-4.3l-4.2-11.8l-4.8-7.4 l-8.3-16.5l-5.6-6c-0.5,0-1.3-1.6-2.6-3.5c-1.3-1.4-2.2-3.4-2.6-4.4c-3.5-6.1-6.5-10.2-6.9-10.8l-2.2-1.3l-9-12.6l-4.9-4 c-16.5-13-21.2-18.6-21.2-18.6c-1.9-1.3-3.9-2.2-3.9-2.6l-13-8.2c-2.2-1.6-4.4-2.1-6.4-3l-8.3-2.6l-7.4-2.1 c-1.3-0.5-2.6-0.5-5.6-1.3c-10.1-2.2-20-3.5-26-3.5c-2.2-0.6-4.8,0-8.8,0c-1.6,5.6-1.6,6.9-1.6,9.1c0,0.4,0,1.3,0,1.8l4.4,12.5 l-0.9,8.2l2.2,9.6l5.6,29.5c1.3,10.5,14.3,36.4,26,52.9c16.5,23.4,44.6,44.1,63.7,46l35.1,4.3l10.8,1.3l18-1.3c1.5,0,3.3,0,6.3,0 L-965.5,223L-965.5,223z"/></g></g></switch></svg>