<svg xmlns="http://www.w3.org/2000/svg" xmlns:svg="http://www.w3.org/2000/svg" xmlns:xlink="http://www.w3.org/1999/xlink" id="svg6096" x="0" y="0" enable-background="new 250 750 512 512" version="1.1" viewBox="250 750 512 512" xml:space="preserve"><g id="layer1" transform="translate(-662.98884,487.82846)"><path id="path4887" fill="#CC0001" d="M1169,774.2c141.4,0,256-114.6,256-256 c0-141.4-114.6-256-256-256c-141.4,0-256,114.6-256,256C913,659.6,1027.6,774.2,1169,774.2"/><path id="path4889" fill="#FFF" d="M1072.4,671.1h17.8V380.4h-17.8V671.1z"/><path id="path4891" fill="#FFF" d="M1072.4,671.1h17.8V380.4h-17.8V671.1z"/><path id="path4893" fill="#FFF" d="M999.2,486.3c0.3-18.5,32.1-19.1,32.1-0.9l0.3,15.8h24.3 v-14.5c1.6-48.7-81.8-48.6-81.2-1.2v83.8c-0.6,47.4,82.8,48.6,81.3,0v-17.6h-24.7v18.8c0,18.2-31.7,18.5-32,0v-85L999.2,486.3"/><path id="path4895" fill="#FFF" d="M1137.9,467.3c0,0,4.2-6.3,15.3-12.4 c14.1-7.8,27.9,0,25.9-0.9c11.1,4.9,15.3,16.8,16.1,30.1v99.2h15.6v18.2h-40.2l0-118.5c0-17.3-29.2-16.7-29.4,0.8l0-0.8v118.5h-36 v-18.2l11.4,0V472.2l-13.6-0.1V454h34.8L1137.9,467.3"/><path id="path4897" fill="#FFF" d="M1319.8,568.7c0.8,13.3,5,25.2,16.1,30.1 c-2.1-1,5.4,2.8,13.1,2.7c4.1-0.1,23.6-0.1,23.6-0.1v-18.2c0,0-9.9-0.1-15.1-0.1c-6.7,0.1-12.4-3.1-12.9-12.5l0.1-98.4l-0.1-0.2 h23.7v-17.8h-23.8l0.1-0.3v-38.2h-24.8L1319.8,568.7"/><path id="path4899" fill="#FFF" d="M1275.1,551.6v18.8c0,18.2-31.7,18.5-32,0v-39.1l52.1,0 c2.5,0,4.5-2,4.5-4.5v-40.2c1.5-48.7-81.8-48.6-81.2-1.2v83.8c-0.7,47.4,82.8,48.6,81.3,0v-17.6L1275.1,551.6L1275.1,551.6 L1275.1,551.6z M1243.1,485.3c0.4-18.2,32-18,32,0.1l-0.1,27.4l-32,0L1243.1,485.3"/></g></svg>