<svg xmlns="http://www.w3.org/2000/svg" xmlns:xlink="http://www.w3.org/1999/xlink" width="441" height="512" version="1.1" viewBox="0 0 441 512"><title>DeployBot</title><desc>Created with Sketch.</desc><defs><ellipse id="path-1" cx="59.685" cy="59.47" rx="59.398" ry="59.398"/><ellipse id="path-3" cx="59.685" cy="59.47" rx="59.398" ry="59.398"/><linearGradient id="linearGradient-5" x1="49.999%" x2="49.999%" y1=".099%" y2="100.04%"><stop offset="0%" stop-color="#FFF"/><stop offset="100%" stop-color="#F0EFEF"/></linearGradient></defs><g id="Page-1" fill="none" fill-rule="evenodd" stroke="none" stroke-width="1"><g id="DeployBot"><g id="Background" fill="#706482"><rect id="XMLID_1_" width="440.09" height="512" x="0" y="0"/></g><g transform="translate(85.573034, 92.764045)"><g id="Group"><g id="XMLID_4_" transform="translate(79.820225, 63.280899)"><g id="XMLID_5_"><path id="XMLID_133_" fill="#D3D3D3" d="M20.6382022,21.5011236 L15.0292135,25.4561798 L5.46516854,9.27640449 L8.26966292,7.19101124 L20.6382022,21.5011236 L20.6382022,21.5011236 Z"/><path id="XMLID_132_" fill="#E7E7E7" d="M3.66741573,0.791011236 C6.47191011,-0.359550562 9.63595506,1.00674157 10.7865169,3.73932584 C11.9370787,6.54382022 10.5707865,9.70786517 7.83820225,10.858427 C5.03370787,12.0089888 1.86966292,10.6426966 0.719101124,7.83820225 C-0.431460674,5.10561798 0.862921348,1.94157303 3.66741573,0.791011236 L3.66741573,0.791011236 Z"/></g><g id="XMLID_6_" transform="translate(88.449438, 0.000000)"><path id="XMLID_131_" fill="#D3D3D3" d="M0.215730337,21.5011236 L5.8247191,25.4561798 L15.388764,9.27640449 L12.5842697,7.19101124 L0.215730337,21.5011236 L0.215730337,21.5011236 Z"/><path id="XMLID_130_" fill="#E7E7E7" d="M17.1865169,0.791011236 C14.3820225,-0.359550562 11.2179775,1.00674157 10.0674157,3.73932584 C8.91685393,6.54382022 10.2831461,9.70786517 13.0157303,10.858427 C15.8202247,12.0089888 18.9842697,10.6426966 20.1348315,7.83820225 C21.2853933,5.10561798 19.9910112,1.94157303 17.1865169,0.791011236 L17.1865169,0.791011236 Z"/></g></g><g id="XMLID_7_" transform="translate(9.348315, 130.876404)"><path id="XMLID_129_" stroke="#E3526A" stroke-width="10" d="M50.6247191,1.79775281 C39.6224719,28.2606742 -18.8404494,113.617978 7.11910112,121.67191 C23.011236,126.633708 24.8089888,102.61573 44.7280899,100.602247 C56.6651685,99.4516854 71.1910112,116.062921 71.1910112,116.062921"/><path id="XMLID_128_" stroke="#F2839B" stroke-width="3" d="M52.0629213,0.359550562 C41.0606742,26.8224719 -18.1213483,112.898876 7.83820225,120.952809 C23.7303371,125.914607 26.247191,101.177528 46.1662921,99.1640449 C58.1033708,98.0134831 72.6292135,114.624719 72.6292135,114.624719" opacity=".3"/><g id="XMLID_8_" transform="translate(60.404494, 104.269663)"><rect id="XMLID_127_" width="9.204" height="6.256" x=".969" y="3.042" fill="#C2C1C1" transform="translate(5.570959, 6.170226) rotate(127.822218) translate(-5.570959, -6.170226)"/><path id="XMLID_126_" fill="#E7E7E7" d="M6.4,7.04719101 L6.83146067,6.54382022 C9.49213483,3.09213483 14.4539326,2.44494382 17.905618,5.17752809 L31.4966292,15.7483146 L21.3573034,28.7640449 L7.76629213,18.1932584 C4.38651685,15.4606742 3.73932584,10.4988764 6.4,7.04719101 L6.4,7.04719101 Z"/><rect id="XMLID_125_" width="12.728" height="11.577" x="24.683" y="19.951" fill="#D3D3D3" transform="translate(31.046598, 25.739560) rotate(127.822218) translate(-31.046598, -25.739560)"/><g id="XMLID_9_" transform="translate(32.359551, 22.292135)"><rect id="XMLID_124_" width="2.373" height="2.373" x=".514" y=".497" fill="#838383" transform="translate(1.700671, 1.683369) rotate(127.822218) translate(-1.700671, -1.683369)"/><rect id="XMLID_123_" width="2.373" height="1.151" x="1.024" y="1.464" fill="#3B3C4A" transform="translate(2.210172, 2.039612) rotate(127.822218) translate(-2.210172, -2.039612)"/></g><g id="XMLID_10_" transform="translate(28.044944, 27.325843)"><rect id="XMLID_122_" width="2.373" height="2.373" x=".857" y=".588" fill="#838383" transform="translate(2.043833, 1.774788) rotate(127.822218) translate(-2.043833, -1.774788)"/><rect id="XMLID_121_" width="2.373" height="1.151" x="1.367" y="1.556" fill="#3B3C4A" transform="translate(2.553262, 2.131103) rotate(127.822218) translate(-2.553262, -2.131103)"/></g><path id="XMLID_120_" fill="#3B3C4A" d="M18.1932584,19.5595506 L18.4808989,19.2 L17.7617978,18.6247191 C17.4741573,18.4089888 17.3303371,17.9775281 17.258427,17.6898876 C17.258427,17.6179775 17.0426966,15.6044944 17.0426966,15.6044944 C17.0426966,15.5325843 16.9707865,15.388764 16.8988764,15.3168539 L15.0292135,13.8786517 C14.5977528,14.1662921 13.9505618,14.1662921 13.447191,13.8067416 C12.8719101,13.3752809 12.8,12.5123596 13.2314607,11.9370787 C13.6629213,11.3617978 14.5258427,11.2898876 15.1011236,11.7213483 C15.5325843,12.0808989 15.7483146,12.6561798 15.5325843,13.2314607 L16.0359551,13.6629213 C16.1078652,13.7348315 16.2516854,13.7348315 16.3235955,13.7348315 C16.3235955,13.7348315 18.3370787,13.447191 18.4089888,13.447191 L18.552809,13.447191 L18.552809,13.447191 C18.8404494,13.447191 19.2,13.5191011 19.4157303,13.7348315 L20.7820225,14.8134831 C21.0696629,14.6696629 21.4292135,14.741573 21.6449438,14.8853933 C22.0044944,15.1730337 22.0764045,15.7483146 21.788764,16.1078652 C21.5011236,16.4674157 20.9258427,16.5393258 20.5662921,16.2516854 C20.2786517,16.0359551 20.2067416,15.7483146 20.2786517,15.4606742 L18.9123596,14.3820225 C18.8404494,14.3101124 18.6966292,14.3101124 18.552809,14.3101124 L17.0426966,14.5258427 L22.1483146,18.4808989 L22.5797753,17.905618 L23.3707865,19.9191011 L21.2134831,19.6314607 L21.6449438,19.0561798 L17.905618,16.1797753 L18.0494382,17.7617978 C18.0494382,17.8337079 18.1213483,17.9775281 18.1932584,18.0494382 L18.9123596,18.6247191 L19.2,18.2651685 L20.5662921,19.3438202 L19.4876404,20.7101124 L18.1932584,19.5595506 L18.1932584,19.5595506 L18.1932584,19.5595506 Z"/></g></g><g id="XMLID_11_" transform="translate(178.337079, 0.000000)"><path id="XMLID_119_" stroke="#F8C761" stroke-width="10" d="M32.4314607,147.05618 C45.8786517,137.707865 98.3011236,101.537079 78.1662921,82.1932584 C71.7662921,76.0808989 62.705618,76.6561798 55.4426966,80.8988764 C50.1213483,83.9910112 44.6561798,87.5146067 38.4,88.0898876 C28.1168539,88.952809 20.2067416,80.9707865 23.7303371,70.8314607 C26.0314607,64.2157303 32.1438202,58.1752809 30.2741573,50.6247191 C29.1235955,45.8067416 26.3191011,41.6359551 24.2337079,37.1775281"/><path id="XMLID_118_" stroke="#FFD892" stroke-width="3" d="M33.2224719,147.41573 C46.6696629,138.067416 99.0202247,100.674157 78.8134831,81.3303371 C72.4134831,75.2179775 63.352809,75.7932584 56.0898876,80.0359551 C50.7685393,83.1280899 45.3033708,86.2921348 39.047191,87.2269663 C27.6134831,88.8089888 20.8539326,80.1078652 24.3775281,69.9685393 C26.6786517,63.352809 32.7910112,57.3123596 30.9213483,49.7617978 C29.7707865,44.9438202 26.9662921,40.7730337 24.8808989,36.3146067" opacity=".6"/><g id="XMLID_12_"><rect id="XMLID_117_" width="8.414" height="19.272" x="18.279" y="24.749" fill="#C2C1C1" transform="translate(22.485832, 34.385000) rotate(-28.502544) translate(-22.485832, -34.385000)"/><rect id="XMLID_116_" width="14.238" height="25.456" x="8.912" y="9.804" fill="#E7E7E7" transform="translate(16.031065, 22.532372) rotate(-28.502544) translate(-16.031065, -22.532372)"/><rect id="XMLID_115_" width="12.297" height="9.564" x="1.582" y="2.374" fill="#D3D3D3" transform="translate(7.730006, 7.155890) rotate(-28.502544) translate(-7.730006, -7.155890)"/><path id="XMLID_114_" fill="#FFF" d="M10.2831461,5.75280899 L5.17752809,8.55730337 C4.38651685,8.98876404 3.45168539,8.7011236 3.02022472,7.91011236 L3.02022472,7.91011236 C2.58876404,7.11910112 2.87640449,6.18426966 3.66741573,5.75280899 L8.77303371,2.94831461 C9.56404494,2.51685393 10.4988764,2.80449438 10.9303371,3.59550562 L10.9303371,3.59550562 C11.2898876,4.38651685 11.0022472,5.32134831 10.2831461,5.75280899 L10.2831461,5.75280899 Z"/><path id="XMLID_113_" stroke="#F8C761" d="M3.59550562,6.4 L4.60224719,8.19775281"/><path id="XMLID_112_" stroke="#F8C761" d="M4.74606742,5.75280899 L5.75280899,7.5505618"/><path id="XMLID_111_" stroke="#F8C761" d="M5.89662921,5.17752809 L6.83146067,6.9752809"/><path id="XMLID_110_" stroke="#F8C761" d="M6.9752809,4.53033708 L7.98202247,6.32808989"/><path id="XMLID_109_" stroke="#F8C761" d="M8.1258427,3.95505618 L9.13258427,5.75280899"/><path id="XMLID_91_" stroke="#F8C761" d="M9.27640449,3.30786517 L10.211236,5.10561798"/></g></g><rect id="XMLID_90_" width="137.852" height="15.389" x="65.51" y="131.667" fill="#ADB2B5"/><rect id="XMLID_89_" width="137.852" height="7.694" x="65.51" y="139.362" fill="#9AA2A5"/><ellipse id="XMLID_88_" cx="134.472" cy="131.164" fill="#DCDBDB" rx="59.398" ry="59.398"/><g id="XMLID_13_" transform="translate(74.786517, 71.910112)"><g id="SVGID_3_-link" fill="#D3D3D3"><ellipse id="SVGID_3_" cx="59.685" cy="59.47" rx="59.398" ry="59.398"/></g><g id="Clipped"><mask id="mask-2" fill="#fff"><use xlink:href="#path-1"/></mask><g id="Group" mask="url(#mask-2)"><g transform="translate(-4.314607, -45.303371)"><g id="XMLID_15_" opacity=".5" transform="translate(0.000000, 1.438202)"><path id="XMLID_87_" fill="#A9ABAF" d="M100.746067,117.788764 L27.2539326,117.788764 C12.5842697,117.788764 0.647191011,105.851685 0.647191011,91.1820225 L0.647191011,0.647191011 L127.280899,0.647191011 L127.280899,91.1101124 C127.352809,105.851685 115.41573,117.788764 100.746067,117.788764 L100.746067,117.788764 Z"/></g><g id="XMLID_16_"><path id="XMLID_86_" fill="#F0EFEF" d="M100.746067,117.788764 L27.2539326,117.788764 C12.5842697,117.788764 0.647191011,105.851685 0.647191011,91.1820225 L0.647191011,0.647191011 L127.280899,0.647191011 L127.280899,91.1101124 C127.352809,105.851685 115.41573,117.788764 100.746067,117.788764 L100.746067,117.788764 Z"/></g></g></g></g><g id="XMLID_85_-Clipped"><mask id="mask-4" fill="#fff"><use xlink:href="#path-3"/></mask><rect id="XMLID_85_" width="16.683" height="18.337" x="-44.081" y="18.697" fill="#E7E7E7" mask="url(#mask-4)"/></g></g><g id="XMLID_14_" transform="translate(183.370787, 143.101124)"><rect id="XMLID_84_" width="5.609" height="16.971" x="56.41" y="61.634" fill="#ADB2B5" transform="translate(59.214662, 70.119249) rotate(229.578929) translate(-59.214662, -70.119249)"/><rect id="XMLID_83_" width="12.512" height="62.273" x="45.858" y="-1.32" fill="#ADB2B5" transform="translate(52.113985, 29.817032) rotate(146.212996) translate(-52.113985, -29.817032)"/><circle id="XMLID_82_" cx="70.04" cy="60.98" r="10.427" fill="#E7E7E7"/><ellipse id="XMLID_81_" cx="70.04" cy="60.98" fill="#ADB2B5" rx="3.236" ry="3.236"/><rect id="XMLID_80_" width="15.964" height="30.418" x="35.763" y="67.272" fill="#E7E7E7" transform="translate(43.745089, 82.480831) rotate(230.632386) translate(-43.745089, -82.480831)"/><g id="XMLID_17_" transform="translate(0.000000, 77.662921)"><path id="XMLID_79_" fill="#3B3C4A" d="M13.0876404,34.3730337 C15.1730337,35.1640449 17.6179775,34.9483146 19.4876404,33.5101124 C22.3640449,31.2808989 22.9393258,27.1820225 20.7101124,24.305618 C18.4808989,21.4292135 14.3820225,20.8539326 11.505618,23.0831461 C9.56404494,24.5213483 8.7011236,26.894382 8.98876404,29.1235955 L0.503370787,30.058427 C-0.0719101124,24.952809 1.94157303,19.6314607 6.32808989,16.3235955 C12.9438202,11.2898876 22.4359551,12.5123596 27.541573,19.2 C32.5752809,25.8157303 31.352809,35.3078652 24.6651685,40.4134831 C20.2786517,43.7932584 14.5977528,44.3685393 9.77977528,42.3550562 L13.0876404,34.3730337 L13.0876404,34.3730337 Z"/><path id="XMLID_78_" fill="#E7E7E7" d="M30.3460674,26.0314607 L38.0404494,20.2067416 L28.6921348,7.91011236 L20.9977528,13.7348315 C17.6179775,16.3235955 16.9707865,21.141573 19.5595506,24.5213483 L19.5595506,24.5213483 C22.0764045,27.9730337 26.9662921,28.6202247 30.3460674,26.0314607 L30.3460674,26.0314607 Z"/><rect id="XMLID_77_" width="9.852" height="24.018" x="29.59" y="1.243" fill="#ADB2B5" transform="translate(34.515671, 13.252124) rotate(142.663716) translate(-34.515671, -13.252124)"/></g></g><g id="XMLID_18_" transform="translate(0.000000, 5.752809)"><rect id="XMLID_76_" width="5.609" height="16.971" x="17.514" y="64.967" fill="#ADB2B5" transform="translate(20.318727, 73.452591) rotate(40.721856) translate(-20.318727, -73.452591)"/><rect id="XMLID_75_" width="12.512" height="62.273" x="27.327" y="81.004" fill="#ADB2B5" transform="translate(33.583137, 112.140261) rotate(-42.649476) translate(-33.583137, -112.140261)"/><circle id="XMLID_74_" cx="11.002" cy="84.135" r="10.427" fill="#E7E7E7"/><ellipse id="XMLID_73_" cx="11.002" cy="84.135" fill="#ADB2B5" rx="3.236" ry="3.236"/><rect id="XMLID_72_" width="15.964" height="28.98" x="25.244" y="44.84" fill="#E7E7E7" transform="translate(33.226607, 59.330251) rotate(41.773426) translate(-33.226607, -59.330251)"/><g id="XMLID_19_" transform="translate(28.764045, 15.820225)"><path id="XMLID_71_" fill="#3B3C4A" d="M30.705618,9.06067416 C28.5483146,8.55730337 26.1752809,9.20449438 24.5213483,10.9303371 C22.0044944,13.5191011 22.0764045,17.6898876 24.7370787,20.2067416 C27.3258427,22.7235955 31.4966292,22.6516854 34.0134831,19.9910112 C35.6674157,18.2651685 36.1707865,15.8202247 35.5955056,13.6629213 L43.8651685,11.4337079 C45.2314607,16.3955056 44.0089888,21.9325843 40.1977528,25.9595506 C34.4449438,32 24.8808989,32.2157303 18.8404494,26.3910112 C12.8,20.6382022 12.5842697,11.0741573 18.4089888,5.03370787 C22.2202247,1.00674157 27.7573034,-0.431460674 32.7910112,0.791011236 L30.705618,9.06067416 L30.705618,9.06067416 Z"/><path id="XMLID_70_" fill="#E7E7E7" d="M14.8853933,19.9910112 L7.91011236,27.2539326 L19.2719101,38.1842697 L26.247191,30.9213483 C29.1955056,27.8292135 29.1235955,22.9393258 26.0314607,19.9910112 L25.8157303,19.7752809 C22.7235955,16.8269663 17.8337079,16.8988764 14.8853933,19.9910112 L14.8853933,19.9910112 Z"/><rect id="XMLID_69_" width="9.852" height="24.018" x="7.834" y="21.234" fill="#ADB2B5" transform="translate(12.759364, 33.242582) rotate(-46.195262) translate(-12.759364, -33.242582)"/></g><rect id="XMLID_68_" width="29.339" height="30.993" x="56.239" y="1.864" fill="#FFF" transform="translate(70.908246, 17.360036) rotate(-6.061789) translate(-70.908246, -17.360036)"/><g id="XMLID_20_" fill="#45A6C0" transform="translate(59.685393, 8.629213)"><g id="XMLID_21_"><path id="XMLID_67_" d="M22.0764045,7.69438202 L16.0359551,2.44494382 C15.8202247,2.3011236 15.5325843,2.3011236 15.388764,2.51685393 L14.2382022,3.81123596 C14.094382,4.02696629 14.094382,4.31460674 14.3101124,4.45842697 L18.6966292,8.26966292 L14.8853933,12.6561798 C14.741573,12.8719101 14.741573,13.1595506 14.9573034,13.3033708 L16.2516854,14.4539326 C16.3235955,14.5258427 16.4674157,14.5977528 16.611236,14.5977528 C16.7550562,14.5977528 16.8269663,14.5258427 16.8988764,14.4539326 L22.1483146,8.41348315 C22.2921348,8.19775281 22.2921348,7.91011236 22.0764045,7.69438202 L22.0764045,7.69438202 Z"/><path id="XMLID_66_" d="M8.1258427,13.1595506 L3.73932584,9.34831461 L7.5505618,4.96179775 C7.62247191,4.88988764 7.69438202,4.74606742 7.69438202,4.60224719 C7.69438202,4.45842697 7.62247191,4.38651685 7.5505618,4.31460674 L6.25617978,3.16404494 C6.18426966,3.09213483 6.04044944,3.02022472 5.89662921,3.02022472 C5.75280899,3.02022472 5.68089888,3.09213483 5.60898876,3.16404494 L0.359550562,9.20449438 C0.215730337,9.42022472 0.215730337,9.70786517 0.431460674,9.85168539 L6.47191011,15.1011236 C6.54382022,15.1730337 6.68764045,15.2449438 6.83146067,15.2449438 C6.9752809,15.2449438 7.04719101,15.1730337 7.11910112,15.1011236 L8.26966292,13.8067416 C8.34157303,13.5910112 8.26966292,13.3033708 8.1258427,13.1595506 L8.1258427,13.1595506 Z"/><path id="XMLID_65_" d="M13.8786517,0.719101124 C13.8067416,0.647191011 13.7348315,0.575280899 13.5910112,0.503370787 L12.5842697,0.287640449 C12.2966292,0.215730337 12.0808989,0.359550562 12.0089888,0.647191011 L8.48539326,16.5393258 C8.48539326,16.6831461 8.48539326,16.7550562 8.55730337,16.8988764 C8.62921348,16.9707865 8.7011236,17.0426966 8.84494382,17.1146067 L9.85168539,17.3303371 L9.99550562,17.3303371 C10.211236,17.3303371 10.3550562,17.1865169 10.4269663,16.9707865 L13.9505618,1.07865169 C13.9505618,0.934831461 13.9505618,0.791011236 13.8786517,0.719101124 L13.8786517,0.719101124 Z"/></g></g><path id="XMLID_64_" fill="#3B3C4A" d="M51.7033708,29.411236 C51.9910112,28.4044944 52.494382,27.4696629 53.2134831,26.6786517 C54.8674157,24.952809 57.2404494,24.305618 59.3977528,24.8089888 L61.4831461,16.5393258 C56.4494382,15.3168539 50.9123596,16.7550562 47.1011236,20.7820225 C44.6561798,23.3707865 43.2898876,26.5348315 43.0022472,29.8426966 C45.8786517,29.6988764 48.8269663,29.5550562 51.7033708,29.411236 L51.7033708,29.411236 Z"/></g><g id="XMLID_22_" transform="translate(58.247191, 142.382022)"><path id="XMLID_63_" stroke="#F8C761" stroke-width="10" d="M0.503370787,2.01348315 L0.503370787,45.2314607 C0.503370787,59.6853933 12.5842697,75.9370787 28.6921348,68.5303371 C55.2988764,56.305618 59.6853933,41.6359551 101.393258,44.2247191 C116.134831,45.1595506 142.885393,54.6516854 142.885393,54.6516854"/><path id="XMLID_62_" stroke="#FFD892" stroke-width="3" d="M1.22247191,0.359550562 L1.22247191,43.5775281 C1.22247191,58.0314607 11.9370787,76.2247191 29.411236,67.5955056 C55.7303371,54.6516854 60.4044944,40.7011236 102.11236,43.2898876 C116.853933,44.2247191 143.604494,54.4359551 143.604494,54.4359551" opacity=".6"/></g><g id="XMLID_23_" transform="translate(64.000000, 143.101124)"><path id="XMLID_61_" stroke="#E3526A" stroke-width="10" d="M146.696629,1.29438202 L146.696629,51.7033708 C146.696629,66.1573034 130.948315,75.1460674 118.507865,67.811236 C93.2674157,52.8539326 77.0157303,32.647191 35.8831461,39.9820225 C28.7640449,41.2764045 0.719101124,54.6516854 0.719101124,54.6516854"/><path id="XMLID_60_" stroke="#F2839B" stroke-width="3" d="M145.977528,0.575280899 L145.977528,52.4224719 C145.977528,66.8764045 130.229213,73.7078652 117.788764,66.3730337 C92.5483146,51.4157303 73.7078652,31.6404494 35.8831461,39.047191 C28.7640449,40.4134831 0,53.9325843 0,53.9325843" opacity=".3"/></g><g id="XMLID_24_" transform="translate(202.786517, 118.651685)"><path id="XMLID_59_" fill="#E7E7E7" d="M3.45168539,0.575280899 C2.37303371,0.575280899 1.29438202,0.647191011 0.215730337,0.862921348 L0.215730337,40.6292135 C1.29438202,40.7730337 2.37303371,40.9168539 3.45168539,40.9168539 C14.5977528,40.9168539 23.5865169,31.9280899 23.5865169,20.7820225 C23.5865169,9.56404494 14.5977528,0.575280899 3.45168539,0.575280899 L3.45168539,0.575280899 Z"/><ellipse id="XMLID_58_" cx="18.481" cy="14.238" fill="#3B3C4A" rx="1.438" ry="1.438"/></g><g id="XMLID_25_" transform="translate(42.426966, 118.651685)"><path id="XMLID_57_" fill="#E7E7E7" d="M20.4224719,0.575280899 C21.5011236,0.575280899 22.5797753,0.647191011 23.658427,0.862921348 L23.658427,40.6292135 C22.5797753,40.7730337 21.5011236,40.9168539 20.4224719,40.9168539 C9.27640449,40.9168539 0.287640449,31.9280899 0.287640449,20.7820225 C0.287640449,9.56404494 9.34831461,0.575280899 20.4224719,0.575280899 L20.4224719,0.575280899 Z"/><ellipse id="XMLID_56_" cx="5.393" cy="14.238" fill="#3B3C4A" rx="1.438" ry="1.438"/></g><g id="XMLID_26_" fill="#3B3C4A" opacity=".22" transform="translate(102.112360, 231.550562)"><ellipse id="XMLID_39_" cx="36.243" cy="7.047" rx="35.955" ry="6.472"/></g><path id="XMLID_38_" stroke="#706582" d="M75.0022472,131.092135 C75.0022472,131.092135 75.0022472,131.192135 75.0022472,131.092135"/><ellipse id="XMLID_37_" cx="134.472" cy="130.948" fill="#3B3C4A" opacity=".86" rx="29.627" ry="28.476"/><circle id="XMLID_36_" cx="134.472" cy="134.544" r="28.476" fill="#FFF"/><g id="XMLID_27_" transform="translate(120.808989, 120.808989)"><ellipse id="XMLID_35_" cx="13.663" cy="13.735" fill="#4BBE9D" rx="13.303" ry="13.303"/><ellipse id="XMLID_34_" cx="13.663" cy="13.735" fill="#3B3C4A" rx="6.112" ry="6.112"/><ellipse id="XMLID_33_" cx="18.625" cy="9.133" fill="#FFF" rx="2.373" ry="2.373"/></g><path id="XMLID_32_" fill="#FFF" d="M120.089888,124.764045 C120.089888,125.339326 150.579775,141.878652 150.579775,141.878652 L152.449438,129.653933 L132.170787,117.429213 L120.089888,124.764045 L120.089888,124.764045 Z" opacity=".25"/><g id="XMLID_28_" transform="translate(179.056180, 184.808989)"><rect id="XMLID_31_" width="10.715" height="13.663" x="30.676" y="11.142" fill="#D3D3D3" transform="translate(36.033298, 17.973379) rotate(198.831735) translate(-36.033298, -17.973379)"/><rect id="XMLID_30_" width="5.897" height="12.153" x="5.415" y="2.18" fill="#ADB2B5" transform="translate(8.363297, 8.256370) rotate(198.831735) translate(-8.363297, -8.256370)"/><rect id="XMLID_29_" width="6.472" height="9.205" x="1.59" y="2.317" fill="#ADB2B5" transform="translate(4.825888, 6.918954) rotate(198.831735) translate(-4.825888, -6.918954)"/><rect id="XMLID_40_" width="22.365" height="18.697" x="9.272" y="3.331" fill="#E7E7E7" transform="translate(20.454317, 12.679414) rotate(198.831735) translate(-20.454317, -12.679414)"/><path id="XMLID_41_" stroke="#E3526A" stroke-width=".7" d="M32.3595506,12.2966292 L42.4988764,15.7483146"/><path id="XMLID_42_" stroke="#63C0AA" stroke-width=".7" d="M31.352809,15.1011236 L41.4921348,18.6247191"/><path id="XMLID_43_" stroke="#706582" stroke-width=".7" d="M30.4179775,17.9775281 L40.5573034,21.4292135"/><path id="XMLID_44_" stroke="#F8C761" stroke-width=".7" d="M29.411236,20.7820225 L39.5505618,24.2337079"/><rect id="XMLID_45_" width="8.845" height="3.092" x="26.556" y="14.737" fill="#FFF" transform="translate(30.978369, 16.282848) rotate(198.831735) translate(-30.978369, -16.282848)"/></g><g id="XMLID_46_" stroke="#FFF" stroke-width=".5" transform="translate(117.932584, 122.247191)"><g id="XMLID_47_" transform="translate(0.000000, 23.730337)"><path id="XMLID_48_" d="M0.359550562,0.215730337 L32,0.215730337"/></g><g id="XMLID_49_" transform="translate(0.000000, 21.573034)"><path id="XMLID_50_" d="M0.359550562,0.215730337 L32,0.215730337"/></g><g id="XMLID_51_" transform="translate(0.000000, 19.415730)"><path id="XMLID_52_" d="M0.359550562,0.215730337 L32,0.215730337"/></g><g id="XMLID_53_" transform="translate(0.000000, 17.258427)"><path id="XMLID_54_" d="M0.359550562,0.215730337 L32,0.215730337"/></g><g id="XMLID_55_" transform="translate(0.000000, 15.101124)"><path id="XMLID_92_" d="M0.359550562,0.215730337 L32,0.215730337"/></g><g id="XMLID_93_" transform="translate(0.000000, 12.943820)"><path id="XMLID_94_" d="M0.359550562,0.215730337 L32,0.215730337"/></g><g id="XMLID_95_" transform="translate(0.000000, 10.786517)"><path id="XMLID_96_" d="M0.359550562,0.215730337 L32,0.215730337"/></g><g id="XMLID_97_" transform="translate(0.000000, 8.629213)"><path id="XMLID_98_" d="M0.359550562,0.215730337 L32,0.215730337"/></g><g id="XMLID_99_" transform="translate(0.000000, 6.471910)"><path id="XMLID_100_" d="M0.359550562,0.215730337 L32,0.215730337"/></g><g id="XMLID_101_" transform="translate(0.000000, 4.314607)"><path id="XMLID_102_" d="M0.359550562,0.215730337 L32,0.215730337"/></g><g id="XMLID_103_" transform="translate(0.000000, 2.157303)"><path id="XMLID_104_" d="M0.359550562,0.215730337 L32,0.215730337"/></g><g id="XMLID_105_"><path id="XMLID_106_" d="M0.359550562,0.215730337 L32,0.215730337"/></g></g><g id="XMLID_107_" transform="translate(34.516854, 185.528090)"><rect id="XMLID_108_" width="19.632" height="11.65" x="19.731" y="10.181" fill="#ADB2B5" transform="translate(29.547204, 16.005994) rotate(245.241666) translate(-29.547204, -16.005994)"/><g id="XMLID_136_" transform="translate(3.595506, 19.415730)"><path id="XMLID_137_" fill="#DCDBDB" d="M0.862921348,8.48539326 L0.431460674,13.0876404 L17.4741573,14.5977528 L28.6202247,3.23595506 L25.3123596,0 L15.6764045,9.77977528 L0.862921348,8.48539326 Z"/><ellipse id="XMLID_138_" cx="16.467" cy="11.865" fill="#3B3C4A" rx="3.308" ry="3.308"/></g><g id="XMLID_139_" transform="translate(0.000000, 8.629213)"><path id="XMLID_140_" fill="#DCDBDB" d="M3.95505618,17.3303371 L0.287640449,14.5258427 L10.5707865,0.862921348 L26.4629213,0.287640449 L26.6786517,4.88988764 L12.9438202,5.39325843 L3.95505618,17.3303371 Z"/><ellipse id="XMLID_141_" cx="11.937" cy="3.452" fill="#3B3C4A" rx="3.308" ry="3.308"/></g><rect id="XMLID_142_" width="23.659" height="8.27" x="24.128" y="9.026" fill="#DCDBDB" transform="translate(35.957196, 13.161366) rotate(245.241666) translate(-35.957196, -13.161366)"/></g><ellipse id="XMLID_143_" cx="164.259" cy="97.505" fill="#FFF" rx="6.832" ry="9.78" transform="translate(164.259437, 97.505064) rotate(-48.701428) translate(-164.259437, -97.505064)"/></g><path id="XMLID_2_" fill="url(#linearGradient-5)" d="M61.411236,306.98427 C61.411236,300.224719 56.0179775,294.759551 49.3303371,294.759551 L40.8449438,294.759551 L40.8449438,319.137079 L49.3303371,319.137079 C56.0179775,319.137079 61.411236,313.74382 61.411236,306.98427 L61.411236,306.98427 L61.411236,306.98427 Z M53.8606742,306.98427 C53.8606742,309.501124 51.847191,311.514607 49.3303371,311.514607 L47.9640449,311.514607 L47.9640449,302.382022 L49.3303371,302.382022 C51.847191,302.453933 53.8606742,304.467416 53.8606742,306.98427 L53.8606742,306.98427 L53.8606742,306.98427 Z M79.5325843,319.137079 L79.5325843,311.946067 L71.4786517,311.946067 L71.4786517,308.782022 L79.5325843,308.782022 L79.5325843,304.970787 L71.4786517,304.970787 L71.4786517,302.022472 L79.5325843,302.022472 L79.5325843,294.759551 L64.3595506,294.759551 L64.3595506,319.137079 L79.5325843,319.137079 L79.5325843,319.137079 Z M101.824719,304.323596 C101.824719,299.074157 97.5820225,294.759551 92.4044944,294.759551 L83.9191011,294.759551 L83.9191011,319.137079 L91.0382022,319.137079 L91.0382022,313.81573 L92.4044944,313.81573 C97.5820225,313.88764 101.824719,309.573034 101.824719,304.323596 L101.824719,304.323596 L101.824719,304.323596 Z M94.9932584,304.323596 C94.9932584,305.833708 93.7707865,306.98427 92.3325843,306.98427 L90.9662921,306.98427 L90.9662921,301.662921 L92.3325843,301.662921 C93.8426966,301.662921 94.9932584,302.885393 94.9932584,304.323596 L94.9932584,304.323596 L94.9932584,304.323596 Z M120.737079,319.137079 L120.737079,311.946067 L112.683146,311.946067 L112.683146,294.759551 L105.564045,294.759551 L105.564045,319.137079 L120.737079,319.137079 L120.737079,319.137079 Z M147.05618,306.98427 C147.05618,300.008989 141.447191,294.25618 134.47191,294.25618 C127.568539,294.25618 121.88764,299.937079 121.88764,306.98427 C121.88764,314.031461 127.496629,319.640449 134.47191,319.640449 C141.375281,319.640449 147.05618,313.959551 147.05618,306.98427 L147.05618,306.98427 L147.05618,306.98427 Z M129.725843,306.98427 C129.725843,304.323596 131.811236,302.166292 134.47191,302.166292 C137.132584,302.166292 139.217978,304.323596 139.217978,306.98427 C139.217978,309.644944 137.132584,311.802247 134.47191,311.802247 C131.811236,311.802247 129.725843,309.644944 129.725843,306.98427 L129.725843,306.98427 L129.725843,306.98427 Z M169.060674,294.759551 L161.150562,294.759551 L157.698876,301.591011 L154.319101,294.759551 L146.408989,294.759551 L154.175281,309.213483 L154.175281,319.137079 L161.294382,319.137079 L161.294382,309.285393 L169.060674,294.759551 L169.060674,294.759551 Z M188.404494,311.802247 C188.404494,309.501124 187.325843,307.703371 185.67191,306.624719 C186.966292,305.546067 187.757303,304.035955 187.757303,302.022472 C187.757303,298.067416 184.521348,294.759551 180.566292,294.759551 L171.146067,294.759551 L171.146067,319.137079 L181.141573,319.137079 C185.168539,319.137079 188.404494,315.901124 188.404494,311.802247 L188.404494,311.802247 L188.404494,311.802247 Z M181.357303,311.298876 C181.357303,312.305618 180.566292,313.096629 179.559551,313.096629 L178.265169,313.096629 L178.265169,309.501124 L179.559551,309.501124 C180.566292,309.501124 181.357303,310.364045 181.357303,311.298876 L181.357303,311.298876 L181.357303,311.298876 Z M180.853933,302.525843 C180.853933,303.532584 180.062921,304.323596 179.12809,304.323596 L178.265169,304.323596 L178.265169,300.8 L179.12809,300.8 C180.062921,300.8 180.853933,301.591011 180.853933,302.525843 L180.853933,302.525843 L180.853933,302.525843 Z M215.874157,306.98427 C215.874157,300.008989 210.265169,294.25618 203.289888,294.25618 C196.386517,294.25618 190.705618,299.937079 190.705618,306.98427 C190.705618,314.031461 196.314607,319.640449 203.289888,319.640449 C210.265169,319.640449 215.874157,313.959551 215.874157,306.98427 L215.874157,306.98427 L215.874157,306.98427 Z M198.61573,306.98427 C198.61573,304.323596 200.701124,302.166292 203.361798,302.166292 C206.022472,302.166292 208.107865,304.323596 208.107865,306.98427 C208.107865,309.644944 206.022472,311.802247 203.361798,311.802247 C200.701124,311.802247 198.61573,309.644944 198.61573,306.98427 L198.61573,306.98427 L198.61573,306.98427 Z M233.132584,302.022472 L233.132584,294.759551 L217.88764,294.759551 L217.88764,302.022472 L221.914607,302.022472 L221.914607,319.137079 L229.033708,319.137079 L229.033708,302.022472 L233.132584,302.022472 L233.132584,302.022472 Z"/></g></g></g></svg>