<svg xmlns="http://www.w3.org/2000/svg" xmlns:svg="http://www.w3.org/2000/svg" xmlns:xlink="http://www.w3.org/1999/xlink" id="svg2" x="0" y="0" enable-background="new 250.5 189 4075 512" version="1.1" viewBox="250.5 189 4075 512" xml:space="preserve"><path id="path3005" fill="#369" d="M567.3,343.6c0,51.6-28.5,94.3-89.9,94.3h-62.5V247.1h62.5	C538.8,247.1,567.3,291,567.3,343.6 M414.9,532.1v-53.7h62.5c112.9,0,175.4-59.2,175.4-134.9c0-77.8-62.5-135.9-175.4-135.9H250.5	v21.9c73.4,0,86.6,17.5,86.6,127.1v175.4c0,109.6-13.2,128.3-86.6,128.3v21.9h251v-21.9C428.1,660.4,414.9,641.8,414.9,532.1"/><path id="path3009" fill="#369" d="M861.4,525.6h179.8l21.9,50.4	c27.4,64.7,19.7,83.3-59.2,83.3v23h245.6v-23c-58.1,0-71.2-13.1-107.4-95.4L980.9,189h-15.3l-161.1,375	c-36.2,82.2-46,95.4-112.9,95.4v23h207.2v-23c-86.6,0-86.6-18.6-59.2-83.3L861.4,525.6z M1023.7,485H879l72.4-167.7L1023.7,485z"/><path id="path3013" fill="#369" d="M1410.6,356.7v175.4c0,109.6-13.1,128.3-86.6,128.3v21.9	h213.8v-21.9c-73.5,0-86.6-18.6-86.6-128.3V317.3l319,382.6h20.8V356.7c0-109.6,13.2-127.2,86.6-127.2v-21.9h-213.7v21.9	c73.4,0,86.6,17.6,86.6,127.2V554l-291.6-346.4H1324v21.9C1397.5,229.6,1410.6,247.1,1410.6,356.7"/><path id="path3017" fill="#369" d="M2386.6,444.4c0,87.7-28.5,197.3-173.2,197.3h-8.8	c-54.8,0-62.5-12.1-62.5-83.3V247.1h71.3C2358.1,247.1,2386.6,357.8,2386.6,444.4 M1977.7,682.3h232.4	c186.4,0,267.5-107.5,267.5-237.9c0-129.4-81.1-236.8-267.5-236.8h-232.4v21.9c73.5,0,86.6,17.6,86.6,127.2v175.4	c0,109.6-13.2,128.3-86.6,128.3V682.3z"/><path id="path3021" fill="#369" d="M3127.9,444.4c0-139.2-120.6-255.4-267.5-255.4	c-146.9,0-267.5,116.2-267.5,255.4c0,141.4,120.6,256.6,267.5,256.6C3007.4,701,3127.9,585.8,3127.9,444.4 M3038,444.4	c0,95.4-48.2,213.8-177.6,213.8c-129.4,0-177.6-118.4-177.6-213.8c0-94.3,48.2-213.8,177.6-213.8	C2989.8,230.6,3038,350.2,3038,444.4"/><path id="path3025" fill="#369" d="M3546.2,343.6c0,51.6-28.5,94.3-89.9,94.3h-62.5V247.1h62.5	C3517.7,247.1,3546.2,291,3546.2,343.6 M3499,476.2c82.2-11,132.6-65.8,132.6-132.7c0-77.8-62.5-135.9-175.4-135.9h-227v21.9	c73.5,0,86.6,17.5,86.6,127.1v175.4c0,109.6-13.1,128.3-86.6,128.3v21.9h251.1v-21.9c-73.5,0-86.6-18.6-86.6-128.3v-53.7h30.7	l149.1,203.9h140.3v-21.9c-52.6-7.7-103.1-50.4-146.9-102L3499,476.2z"/><path id="path3029" fill="#369" d="M3937.4,525.6h179.8l21.9,50.4	c27.4,64.7,19.8,83.3-59.2,83.3v23h245.6v-23c-58.1,0-71.3-13.1-107.4-95.4l-161.1-375h-15.4l-161.2,375	c-36.2,82.2-46,95.4-112.9,95.4v23h207.2v-23c-86.6,0-86.6-18.6-59.2-83.3L3937.4,525.6z M4099.7,485h-144.7l72.4-167.7L4099.7,485z"/></svg>