<svg xmlns="http://www.w3.org/2000/svg" xmlns:xlink="http://www.w3.org/1999/xlink" id="Layer_1" width="247.334" height="243.258" x="0" y="0" enable-background="new 0 0 247.334 243.258" version="1.1" viewBox="0 0 247.334 243.258" xml:space="preserve"><rect width="247.334" height="243.258" fill="#3FA4C4"/><g><path fill="#FFF" d="M180.458,105.707c0,42.229-45.415,88.635-56.791,88.635s-56.792-46.406-56.792-88.635	c0-31.365,25.426-56.791,56.792-56.791S180.458,74.342,180.458,105.707z"/><path fill="#DB5248" d="M123.667,71.437c-2.731,0-5.384,0.327-7.931,0.928c4.619,2.265,7.807,6.998,7.807,12.489	c0,7.686-6.231,13.917-13.917,13.917c-7.399,0-13.433-5.779-13.874-13.067c-4.112,5.675-6.543,12.647-6.543,20.191	c0,19.031,15.427,34.458,34.458,34.458c19.031,0,34.458-15.428,34.458-34.458S142.698,71.437,123.667,71.437z"/></g></svg>