<svg xmlns="http://www.w3.org/2000/svg" xmlns:svg="http://www.w3.org/2000/svg" id="Calque_1" width="100%" height="100%" x="0" y="0" enable-background="new 0 0 187 71" version="1.1" viewBox="0 0 136.355 35.9" xml:space="preserve"><metadata id="metadata55"/><g id="g3" transform="translate(-21.935916,-20.1)"><path id="path5" d="m 35.5,41.6 c 0.2,-1.1 0.1,-2 -0.5,-2.6 -0.5,-0.6 -1.6,-1.2 -3.2,-1.9 -2.6,-0.9 -4.6,-2 -5.8,-3.3 -1.2,-1.3 -1.6,-3 -1.2,-5.1 0.4,-2.1 1.5,-3.7 3.2,-4.8 1.7,-1.1 3.8,-1.7 6.2,-1.7 2.6,0 4.6,0.7 6,2.1 1.4,1.4 1.9,3.2 1.4,5.6 L 41.5,30 h -4.8 c 0.2,-1.2 0,-2.1 -0.6,-2.8 -0.6,-0.7 -1.5,-1.1 -2.7,-1.1 -0.8,0 -1.6,0.2 -2.3,0.7 -0.7,0.5 -1.1,1.1 -1.3,1.8 -0.2,1.1 -0.1,1.9 0.5,2.5 0.6,0.5 1.8,1.2 3.8,1.9 2.5,0.9 4.3,2 5.4,3.3 1.1,1.3 1.4,3 1,5.2 -0.4,2.2 -1.5,3.8 -3.2,4.9 C 35.6,47.5 33.5,48 31.1,48 28.6,48 26.5,47.4 24.7,46.1 23,44.8 22.4,42.9 23,40.3 l 0,-0.1 h 4.8 c -0.3,1.5 0,2.5 0.8,3.1 0.8,0.6 1.9,0.8 3.2,0.8 0.8,0 1.6,-0.2 2.4,-0.7 0.7,-0.4 1.1,-1.1 1.3,-1.8 z" style="fill:#fff"/><path id="path7" d="m 31,48.8 c -2.7,0 -5,-0.7 -6.8,-2 -2,-1.4 -2.7,-3.6 -2,-6.6 l 0.2,-0.7 h 6.3 l -0.2,0.9 c -0.3,1.7 0.3,2.1 0.5,2.3 0.7,0.5 1.6,0.7 2.8,0.7 0.7,0 1.3,-0.2 1.9,-0.6 0.6,-0.4 0.9,-0.8 1,-1.4 0.2,-0.9 0.1,-1.5 -0.3,-1.9 -0.3,-0.3 -1.1,-0.9 -3,-1.7 -2.7,-0.9 -4.7,-2.1 -6,-3.5 -1.4,-1.5 -1.8,-3.4 -1.4,-5.8 0.5,-2.3 1.6,-4 3.5,-5.3 1.8,-1.2 4,-1.8 6.6,-1.8 2.7,0 4.9,0.8 6.5,2.3 1.6,1.6 2.2,3.7 1.6,6.3 L 42.1,30.3 42,30.8 H 35.8 L 36,29.9 c 0.2,-1 0.1,-1.7 -0.4,-2.2 -0.5,-0.5 -1.2,-0.8 -2.2,-0.8 -0.7,0 -1.3,0.2 -1.9,0.6 -0.6,0.4 -0.9,0.8 -1,1.4 -0.3,1.3 0.2,1.6 0.3,1.7 0.3,0.3 1.2,0.9 3.6,1.8 2.6,0.9 4.5,2.1 5.7,3.5 1.3,1.5 1.6,3.4 1.2,5.9 -0.5,2.4 -1.7,4.2 -3.5,5.4 -1.9,1 -4.2,1.6 -6.8,1.6 z M 23.6,41 c -0.4,2 0.1,3.5 1.5,4.5 1.6,1.2 3.6,1.7 5.9,1.7 2.3,0 4.3,-0.5 5.8,-1.5 1.5,-1 2.5,-2.4 2.9,-4.4 0.4,-2 0.1,-3.5 -0.8,-4.6 -1,-1.2 -2.7,-2.2 -5,-3 -2.1,-0.8 -3.4,-1.5 -4,-2.1 -0.8,-0.7 -1,-1.8 -0.7,-3.2 0.2,-0.9 0.7,-1.7 1.6,-2.3 0.8,-0.6 1.8,-0.9 2.7,-0.9 1.4,0 2.6,0.4 3.3,1.3 0.6,0.7 0.9,1.6 0.8,2.6 H 41 c 0.3,-1.9 -0.1,-3.3 -1.3,-4.4 -1.3,-1.2 -3.1,-1.9 -5.5,-1.9 -2.2,0 -4.2,0.5 -5.8,1.6 -1.5,1 -2.5,2.4 -2.9,4.3 -0.4,1.9 -0.1,3.3 1,4.4 1.1,1.2 3,2.3 5.5,3.1 1.8,0.7 2.9,1.4 3.5,2.1 0.7,0.8 0.9,1.8 0.7,3.2 -0.2,1 -0.8,1.7 -1.7,2.3 -0.9,0.6 -1.8,0.9 -2.8,0.9 -1.4,0 -2.7,-0.3 -3.6,-1 -0.6,-0.4 -1.3,-1.3 -1.2,-2.9 h -3.3 z" style="fill:#fff"/></g><g id="g9" transform="translate(-21.935916,-20.1)"><path id="path11" d="m 51.1,44.2 c 0.8,0 1.4,-0.3 2,-0.8 0.5,-0.5 0.9,-1.2 1,-2.1 h 4.5 l 0,0.1 c -0.3,2 -1.2,3.6 -2.7,4.8 C 54.4,47.4 52.5,48 50.5,48 48,48 46.1,47.1 45,45.3 43.8,43.5 43.5,41.3 43.9,38.6 L 44,38.1 c 0.4,-2.8 1.5,-5.1 3.2,-6.8 1.7,-1.7 3.8,-2.6 6.4,-2.6 2.1,0 3.7,0.7 4.8,2 1.1,1.3 1.5,3 1.1,5.2 l 0,0.1 H 55 c 0.2,-1 0.1,-1.8 -0.3,-2.4 -0.3,-0.6 -0.9,-0.9 -1.8,-0.9 -1.1,0 -2,0.5 -2.7,1.6 -0.7,1 -1.1,2.4 -1.4,4 l -0.1,0.5 c -0.3,1.7 -0.3,3.1 0,4.1 0.4,0.8 1.2,1.3 2.4,1.3 z" style="fill:#fff"/><path id="path13" d="m 50.5,48.8 c -2.8,0 -4.8,-1 -6.2,-3 C 43,43.9 42.6,41.4 43.1,38.5 L 43.2,38 c 0.5,-3 1.6,-5.4 3.4,-7.2 1.8,-1.9 4.2,-2.8 7,-2.8 2.3,0 4.1,0.8 5.4,2.2 1.3,1.5 1.7,3.4 1.3,5.8 l 0,0.1 -0.3,0.5 -0.5,0.1 h -5.4 l 0.1,-0.9 c 0.1,-0.8 0.1,-1.5 -0.2,-1.9 -0.1,-0.3 -0.4,-0.5 -1.1,-0.5 -0.9,0 -1.5,0.4 -2,1.2 -0.6,1 -1,2.2 -1.3,3.7 l -0.1,0.5 c -0.3,1.6 -0.3,2.9 0,3.7 0.1,0.5 0.4,0.9 1.5,0.9 0.6,0 1.1,-0.2 1.5,-0.6 0.4,-0.4 0.7,-1 0.8,-1.7 l 0.1,-0.6 h 5.7 l 0.3,0.8 0,0.2 c -0.3,2.2 -1.3,3.9 -3,5.3 -1.7,1.3 -3.7,2 -5.9,2 z m 3,-19.3 c -2.4,0 -4.4,0.8 -5.9,2.4 -1.6,1.6 -2.6,3.8 -3,6.4 l -0.1,0.5 c -0.4,2.5 -0.1,4.6 1,6.2 1,1.6 2.6,2.3 4.9,2.3 1.9,0 3.5,-0.5 5,-1.7 1.2,-1 2,-2.1 2.3,-3.6 h -3.1 c -0.2,0.7 -0.6,1.4 -1.1,1.9 -0.7,0.7 -1.5,1 -2.5,1 -1.5,0 -2.6,-0.7 -3,-2 -0.3,-1.1 -0.4,-2.5 -0.1,-4.4 L 48,38 c 0.3,-1.7 0.8,-3.1 1.5,-4.2 0.8,-1.3 1.9,-1.9 3.3,-1.9 1.4,0 2.1,0.7 2.4,1.3 0.3,0.6 0.5,1.2 0.4,2 h 3.1 c 0.2,-1.6 -0.1,-3 -1,-4 -0.9,-1.2 -2.3,-1.7 -4.2,-1.7 z" style="fill:#fff"/></g><g id="g15" transform="translate(-21.935916,-20.1)"><path id="path17" d="M 71.2,47.7 C 71.1,47.4 71.1,47 71,46.6 c 0,-0.4 -0.1,-0.7 -0.1,-1.1 -0.7,0.8 -1.4,1.4 -2.3,1.8 -0.8,0.5 -1.8,0.7 -2.7,0.7 -1.6,0 -2.8,-0.5 -3.7,-1.5 -0.9,-1 -1.1,-2.4 -0.8,-4.1 0.4,-1.9 1.3,-3.4 2.8,-4.3 1.5,-0.9 3.5,-1.4 6,-1.4 h 2.2 l 0.3,-1.5 c 0.2,-1 0.1,-1.7 -0.2,-2.1 -0.3,-0.5 -0.8,-0.7 -1.7,-0.7 -0.7,0 -1.2,0.2 -1.7,0.6 -0.5,0.4 -0.8,0.9 -0.9,1.6 l -4.8,0 0,-0.1 c 0.3,-1.7 1.2,-3.1 2.8,-4.2 1.6,-1.1 3.5,-1.6 5.7,-1.6 2,0 3.5,0.6 4.7,1.7 1.1,1.1 1.5,2.7 1.1,4.8 l -1.5,7.7 c -0.2,0.9 -0.3,1.8 -0.3,2.5 0,0.7 0,1.5 0.2,2.2 h -4.9 z m -3.1,-3.4 c 0.6,0 1.2,-0.2 1.8,-0.5 0.6,-0.3 1.1,-0.7 1.5,-1.2 L 72,39.4 h -2.2 c -0.8,0 -1.6,0.3 -2.2,0.8 -0.6,0.5 -1,1.2 -1.1,1.9 -0.1,0.7 -0.1,1.2 0.2,1.5 0.3,0.6 0.8,0.7 1.4,0.7 z" style="fill:#fff"/><path id="path19" d="m 66,48.8 c -1.8,0 -3.2,-0.6 -4.2,-1.8 -1,-1.2 -1.3,-2.8 -0.9,-4.7 0.4,-2.1 1.5,-3.8 3.1,-4.8 1.6,-1 3.7,-1.5 6.5,-1.5 H 72 l 0.2,-0.9 c 0.2,-1 0,-1.4 -0.1,-1.6 -0.1,-0.2 -0.5,-0.4 -1,-0.4 -0.5,0 -0.9,0.1 -1.2,0.4 -0.3,0.3 -0.6,0.7 -0.7,1.2 l -0.1,0.6 -5.9,0 -0.3,-0.8 0,-0.2 c 0.3,-1.9 1.3,-3.5 3.1,-4.7 1.7,-1.2 3.8,-1.8 6.2,-1.8 2.2,0 3.9,0.7 5.2,1.9 1.3,1.3 1.8,3.2 1.3,5.5 l -1.6,7.7 c -0.2,0.9 -0.3,1.7 -0.3,2.4 0,0.7 0,1.4 0.2,2.1 l 0.1,0.9 h -6.5 l -0.1,-0.6 c 0,-0.2 -0.1,-0.5 -0.1,-0.7 -0.4,0.3 -0.8,0.6 -1.3,0.9 -1,0.6 -2,0.9 -3.1,0.9 z m 4.4,-11.4 c -2.4,0 -4.3,0.4 -5.6,1.3 -1.3,0.8 -2.1,2.1 -2.4,3.8 -0.4,1.5 -0.2,2.7 0.5,3.5 0.7,0.9 1.7,1.3 3.1,1.3 0.9,0 1.6,-0.2 2.4,-0.6 0.8,-0.4 1.5,-1 2.1,-1.7 l 1.3,-1.5 v 2 c 0,0.4 0,0.7 0,1 0,0.1 0,0.3 0,0.4 h 3.5 c -0.1,-0.5 -0.1,-1 -0.1,-1.5 0,-0.8 0.1,-1.7 0.3,-2.6 L 77,35.1 c 0.4,-1.8 0.1,-3.2 -0.9,-4.1 -1,-1 -2.4,-1.5 -4.1,-1.5 -2.1,0 -3.9,0.5 -5.3,1.5 -1.2,0.8 -1.9,1.8 -2.3,2.9 l 3.3,0 c 0.2,-0.6 0.5,-1.1 1,-1.5 0.6,-0.5 1.4,-0.8 2.2,-0.8 1.1,0 1.8,0.4 2.3,1 0.4,0.6 0.5,1.5 0.3,2.7 l -0.4,2.1 h -2.7 z m -2.3,7.7 c -0.9,0 -1.5,-0.3 -2,-0.8 -0.4,-0.5 -0.5,-1.3 -0.3,-2.1 0.2,-0.9 0.6,-1.7 1.3,-2.3 0.7,-0.7 1.6,-1 2.7,-1 H 73 L 72.1,43 72,43.2 c -0.5,0.5 -1,1 -1.7,1.4 -0.8,0.3 -1.5,0.5 -2.2,0.5 z m 1.7,-4.8 c -0.7,0 -1.2,0.2 -1.7,0.6 -0.5,0.4 -0.8,0.9 -0.9,1.5 -0.1,0.3 -0.1,0.7 0.1,0.9 0.1,0.2 0.4,0.2 0.8,0.2 0.5,0 1,-0.1 1.5,-0.4 0.5,-0.2 0.8,-0.5 1.2,-0.9 l 0.4,-2.1 h -1.4 z" style="fill:#fff"/></g><g id="g21" transform="translate(-21.935916,-20.1)"><path id="path23" d="m 85.2,47.7 h -5 l 5.4,-26.9 h 5 l -5.4,26.9 z" style="fill:#fff"/><path id="path25" d="M 85.8,48.4 H 79.3 L 85,20.1 h 6.5 l -5.7,28.3 z m -4.7,-1.5 h 3.4 l 5.1,-25.4 h -3.4 l -5.1,25.4 z" style="fill:#fff"/></g><g id="g27" transform="translate(-21.935916,-20.1)"><path id="path29" d="m 95.3,47.7 h -5 L 94,29.1 h 5 l -3.7,18.6 z m 4.6,-23.1 h -5 l 0.8,-3.8 h 5 l -0.8,3.8 z" style="fill:#fff"/><path id="path31" d="m 95.9,48.4 h -6.5 l 4,-20.1 h 6.5 l -4,20.1 z m -4.6,-1.5 h 3.4 l 3.4,-17.1 h -3.4 l -3.4,17.1 z m 9.3,-21.5 h -6.5 l 1.1,-5.3 h 6.5 l -1.1,5.3 z m -4.7,-1.5 h 3.4 l 0.5,-2.3 h -3.4 l -0.5,2.3 z" style="fill:#fff"/></g><g id="g33" transform="translate(-21.935916,-20.1)"><path id="path35" d="m 108.2,31.5 c 0.7,-0.9 1.6,-1.6 2.5,-2.1 0.9,-0.5 1.9,-0.7 2.9,-0.7 1.6,0 2.9,0.6 3.7,1.8 0.8,1.2 0.9,3 0.4,5.5 l -2.3,11.6 h -5 L 112.7,36 c 0.3,-1.3 0.2,-2.2 -0.1,-2.7 -0.3,-0.5 -1,-0.7 -1.9,-0.7 -0.5,0 -1.1,0.1 -1.6,0.4 -0.5,0.3 -1,0.7 -1.4,1.1 L 105,47.6 h -5 L 103.7,29 h 4.6 l -0.1,2.5 z" style="fill:#fff"/><path id="path37" d="m 116.1,48.4 h -6.5 l 2.5,-12.5 c 0.3,-1.6 0.1,-2.1 0,-2.2 -0.2,-0.3 -0.8,-0.4 -1.3,-0.4 -0.4,0 -0.8,0.1 -1.2,0.3 -0.4,0.2 -0.7,0.5 -1.1,0.8 l -2.8,13.9 h -6.5 l 4,-20.1 h 6.1 l -0.1,1.2 c 0.4,-0.3 0.8,-0.5 1.2,-0.7 1,-0.5 2.1,-0.8 3.3,-0.8 1.9,0 3.3,0.7 4.3,2.1 0.9,1.4 1.1,3.4 0.6,6.1 l -2.5,12.3 z m -4.7,-1.5 h 3.4 l 2.2,-11 c 0.5,-2.3 0.3,-4 -0.3,-5 -0.7,-1 -1.6,-1.5 -3,-1.5 -0.9,0 -1.8,0.2 -2.6,0.6 -0.8,0.4 -1.6,1.1 -2.3,1.9 l -0.8,1 c 0.3,-0.2 0.6,-0.4 0.9,-0.6 0.6,-0.3 1.3,-0.5 1.9,-0.5 1.2,0 2,0.4 2.5,1.1 0.5,0.7 0.5,1.7 0.2,3.3 l -2.1,10.7 z m -10.3,0 h 3.4 l 2.7,-13.2 0.5,-3.9 h -3.2 l -3.4,17.1 z" style="fill:#fff"/></g><g id="g39" transform="translate(-21.935916,-20.1)"><path id="path41" d="m 121.2,38.2 c 0.6,-3.1 1.6,-5.5 3,-7.1 1.4,-1.6 3.2,-2.4 5.4,-2.4 0.9,0 1.7,0.2 2.4,0.6 0.7,0.4 1.3,1 1.8,1.7 l 0.7,-2 h 4.3 l -3.6,18.1 c -0.5,2.6 -1.7,4.6 -3.4,6 -1.7,1.4 -4,2.1 -6.7,2.1 -0.8,0 -1.7,-0.1 -2.7,-0.4 -1,-0.3 -1.8,-0.6 -2.6,-1 l 1.7,-3.8 c 0.6,0.4 1.3,0.6 2,0.8 0.7,0.2 1.5,0.3 2.4,0.3 1.1,0 2.1,-0.4 2.8,-1.1 0.8,-0.7 1.3,-1.7 1.5,-2.9 l 0.1,-0.7 c -0.6,0.5 -1.2,0.9 -1.9,1.2 -0.7,0.3 -1.4,0.4 -2.1,0.4 -2,0 -3.5,-0.9 -4.5,-2.7 -1,-1.8 -1.2,-4.1 -0.7,-6.8 l 0.1,-0.3 z m 4.9,0.4 c -0.4,1.8 -0.4,3.1 -0.1,4.1 0.3,1 1,1.5 2.1,1.5 0.6,0 1.2,-0.2 1.7,-0.5 0.5,-0.3 1,-0.8 1.4,-1.4 l 1.7,-8.3 c -0.2,-0.5 -0.5,-0.8 -0.9,-1 -0.4,-0.2 -1,-0.3 -1.6,-0.3 -1,0 -1.9,0.5 -2.6,1.5 -0.7,1 -1.2,2.4 -1.6,4.1 l -0.1,0.3 z" style="fill:#45b0e5"/><path id="path43" d="m 125.1,56 c -0.9,0 -1.9,-0.1 -2.9,-0.4 -1,-0.3 -2,-0.7 -2.8,-1.1 l -0.6,-0.3 2.3,-5.1 0.7,0.4 c 0.6,0.3 1.2,0.6 1.8,0.8 0.6,0.2 1.4,0.3 2.2,0.3 0.9,0 1.7,-0.3 2.3,-0.9 0.4,-0.4 0.7,-0.8 1,-1.4 -0.1,0.1 -0.3,0.1 -0.4,0.2 -0.8,0.3 -1.6,0.5 -2.4,0.5 -2.3,0 -4,-1.1 -5.2,-3.1 -1.1,-2 -1.3,-4.4 -0.8,-7.3 l 0.1,-0.4 c 0.7,-3.3 1.7,-5.8 3.2,-7.4 1.5,-1.8 3.5,-2.6 5.9,-2.6 1,0 2,0.2 2.8,0.7 0.4,0.2 0.8,0.5 1.2,0.9 l 0.5,-1.3 h 5.8 l -3.8,19 c -0.6,2.8 -1.8,5 -3.7,6.4 -1.9,1.3 -4.3,2.1 -7.2,2.1 z m -4.3,-2.6 c 0.5,0.3 1.1,0.5 1.8,0.7 0.9,0.2 1.7,0.4 2.5,0.4 2.5,0 4.6,-0.6 6.2,-1.9 1.6,-1.3 2.7,-3.1 3.2,-5.6 l 3.4,-17.2 H 135 l -1.1,3 -0.8,-1.3 c -0.4,-0.6 -0.9,-1.1 -1.5,-1.5 -0.6,-0.4 -1.3,-0.5 -2.1,-0.5 -2,0 -3.5,0.7 -4.8,2.1 -1.3,1.5 -2.2,3.8 -2.8,6.7 l -0.1,0.4 c -0.5,2.5 -0.3,4.6 0.6,6.3 0.9,1.6 2.1,2.4 3.8,2.4 0.6,0 1.3,-0.1 1.9,-0.4 0.6,-0.3 1.2,-0.6 1.7,-1.1 l 1.6,-1.5 -0.5,2.9 c -0.3,1.4 -0.9,2.5 -1.8,3.3 -0.9,0.8 -2,1.3 -3.4,1.3 -0.9,0 -1.8,-0.1 -2.6,-0.3 -0.5,-0.1 -1,-0.3 -1.5,-0.5 l -0.8,2.3 z m 7.4,-8.5 c -1.4,0 -2.4,-0.7 -2.8,-2 -0.3,-1.1 -0.3,-2.6 0.1,-4.5 l 0.1,-0.4 c 0.4,-1.8 0.9,-3.3 1.7,-4.4 0.9,-1.2 1.9,-1.8 3.2,-1.8 0.8,0 1.4,0.1 2,0.4 0.6,0.3 1,0.8 1.3,1.4 l 0.1,0.2 -1.7,8.7 -0.1,0.1 c -0.5,0.7 -1,1.2 -1.6,1.6 -0.9,0.5 -1.6,0.7 -2.3,0.7 z m 2.2,-11.6 c -0.8,0 -1.4,0.4 -2,1.2 -0.6,0.9 -1.1,2.2 -1.4,3.8 l -0.1,0.4 c -0.3,1.6 -0.4,2.9 -0.1,3.8 0.2,0.7 0.6,1 1.4,1 0.5,0 0.9,-0.1 1.3,-0.4 0.4,-0.2 0.8,-0.6 1.1,-1.1 l 1.6,-7.9 c -0.1,-0.2 -0.3,-0.4 -0.5,-0.5 -0.4,-0.2 -0.8,-0.3 -1.3,-0.3 z" style="fill:#45b0e5"/></g><g id="g45" transform="translate(-21.935916,-20.1)"><path id="path47" d="m 140.9,38.2 c 0.5,-2.9 1.5,-5.2 3.2,-6.9 1.7,-1.7 3.9,-2.6 6.5,-2.6 2.5,0 4.3,0.9 5.6,2.7 1.3,1.8 1.6,4.1 1.2,6.8 l -0.1,0.4 c -0.5,2.9 -1.6,5.2 -3.3,6.9 -1.7,1.7 -3.9,2.6 -6.5,2.6 -2.5,0 -4.3,-0.9 -5.6,-2.7 -1.2,-1.8 -1.6,-4.1 -1.2,-6.8 l 0.2,-0.4 z m 4.9,0.4 c -0.3,1.8 -0.3,3.2 0.1,4.1 0.3,1 1.1,1.5 2.3,1.5 1.1,0 2,-0.5 2.7,-1.6 0.7,-1 1.2,-2.4 1.5,-4.1 l 0.1,-0.4 c 0.3,-1.7 0.2,-3.1 -0.1,-4.1 -0.3,-1 -1.1,-1.5 -2.3,-1.5 -1.1,0 -2,0.5 -2.7,1.6 -0.7,1.1 -1.2,2.4 -1.4,4 l -0.2,0.5 z" style="fill:#45b0e5"/><path id="path49" d="m 147.6,48.8 c -2.7,0 -4.8,-1 -6.2,-3 -1.3,-1.9 -1.8,-4.4 -1.3,-7.4 l 0,-0.3 c 0.5,-3 1.6,-5.5 3.5,-7.3 1.8,-1.9 4.2,-2.8 7,-2.8 2.7,0 4.8,1 6.2,3 1.3,1.9 1.8,4.4 1.3,7.3 l 0,0.4 c -0.5,3.1 -1.7,5.5 -3.5,7.3 -1.9,1.9 -4.2,2.8 -7,2.8 z m 3,-19.3 c -2.4,0 -4.4,0.8 -5.9,2.4 -1.6,1.6 -2.6,3.8 -3,6.5 l 0,0.4 c -0.4,2.6 -0.1,4.7 1,6.3 1.1,1.6 2.7,2.3 4.9,2.3 2.4,0 4.4,-0.8 5.9,-2.3 1.6,-1.6 2.6,-3.8 3.1,-6.5 l 0,-0.3 c 0.4,-2.6 0.1,-4.7 -1,-6.3 -1.1,-1.8 -2.7,-2.5 -5,-2.5 z m -2.4,15.4 c -1.9,0 -2.7,-1.1 -3,-2 -0.4,-1.1 -0.4,-2.6 -0.1,-4.5 l 0,-0.3 c 0.3,-1.7 0.8,-3.2 1.6,-4.3 0.9,-1.3 2,-1.9 3.3,-1.9 1.5,0 2.5,0.7 3,2 0.4,1.1 0.4,2.6 0.1,4.5 l -0.1,0.3 c -0.3,1.8 -0.8,3.3 -1.6,4.4 -0.8,1.2 -1.9,1.8 -3.2,1.8 z M 150,33.3 c -0.9,0 -1.5,0.4 -2.1,1.2 -0.6,1 -1.1,2.2 -1.3,3.7 l -0.1,0.4 c -0.3,1.7 -0.2,2.9 0.1,3.8 0.2,0.5 0.5,1 1.6,1 0.8,0 1.5,-0.4 2.1,-1.2 0.6,-0.9 1.1,-2.2 1.3,-3.8 l 0,-0.3 c 0.3,-1.6 0.2,-2.9 -0.1,-3.7 -0.2,-0.8 -0.6,-1.1 -1.5,-1.1 z" style="fill:#45b0e5"/></g></svg>