<svg xmlns="http://www.w3.org/2000/svg" xmlns:svg="http://www.w3.org/2000/svg" xmlns:xlink="http://www.w3.org/1999/xlink" id="svg2" x="0" y="0" version="1.1" viewBox="0 0 240 240" xml:space="preserve" style="enable-background:new 0 0 240 240"><style type="text/css">.st0{fill:url(#path2995-1-0_1_)}.st1{fill:#c8daea}.st2{fill:#a9c9dd}.st3{fill:url(#path2991_1_)}</style><linearGradient id="path2995-1-0_1_" x1="-683.305" x2="-693.305" y1="534.845" y2="511.512" gradientTransform="matrix(6 0 0 -6 4255 3247)" gradientUnits="userSpaceOnUse"><stop offset="0" style="stop-color:#37aee2"/><stop offset="1" style="stop-color:#1e96c8"/></linearGradient><path id="path2995-1-0" d="M240,120c0,66.3-53.7,120-120,120S0,186.3,0,120S53.7,0,120,0S240,53.7,240,120z" class="st0"/><path id="path2993" d="M98,175c-3.9,0-3.2-1.5-4.6-5.2	L82,132.2L152.8,88l8.3,2.2l-6.9,18.8L98,175z" class="st1"/><path id="path2989" d="M98,175c3,0,4.3-1.4,6-3	c2.6-2.5,36-35,36-35l-20.5-5l-19,12L98,174V175z" class="st2"/><linearGradient id="path2991_1_" x1="128.991" x2="153.991" y1="118.245" y2="78.245" gradientTransform="matrix(1 0 0 -1 0 242)" gradientUnits="userSpaceOnUse"><stop offset="0" style="stop-color:#eff7fc"/><stop offset="1" style="stop-color:#fff"/></linearGradient><path id="path2991" d="M100,144.4l48.4,35.7	c5.5,3,9.5,1.5,10.9-5.1L179,82.2c2-8.1-3.1-11.7-8.4-9.3L55,117.5c-7.9,3.2-7.8,7.6-1.4,9.5l29.7,9.3l68.7-43.3	c3.2-2,6.2-0.9,3.8,1.3L100,144.4z" class="st3"/></svg>